<?xml version="1.0" encoding="UTF-8" standalone="no"?>
<svg
   width="987.39899pt"
   height="948.14099pt"
   viewBox="0 0 987.39899 948.14099"
   version="1.1"
   id="svg2990"
   sodipodi:docname="ct_specimen.svg"
   inkscape:version="1.4.2 (ebf0e940d0, 2025-05-08)"
   xmlns:inkscape="http://www.inkscape.org/namespaces/inkscape"
   xmlns:sodipodi="http://sodipodi.sourceforge.net/DTD/sodipodi-0.dtd"
   xmlns="http://www.w3.org/2000/svg"
   xmlns:svg="http://www.w3.org/2000/svg">
  <sodipodi:namedview
     id="namedview2990"
     pagecolor="#ffffff"
     bordercolor="#000000"
     borderopacity="0.25"
     inkscape:showpageshadow="2"
     inkscape:pageopacity="0.0"
     inkscape:pagecheckerboard="0"
     inkscape:deskcolor="#d1d1d1"
     inkscape:document-units="pt"
     inkscape:zoom="0.25401444"
     inkscape:cx="-909.39714"
     inkscape:cy="657.44295"
     inkscape:window-width="2556"
     inkscape:window-height="1381"
     inkscape:window-x="0"
     inkscape:window-y="0"
     inkscape:window-maximized="0"
     inkscape:current-layer="g2990" />
  <title
     id="title1">test</title>
  <desc
     id="desc1">
Creator: GL2PS 1.4.3, (C) 1999-2020 C. Geuzaine
For: Gmsh
CreationDate: Wed Dec  3 15:56:37 2025
</desc>
  <defs
     id="defs1">
    <marker
       style="overflow:visible"
       id="marker2992"
       refX="0"
       refY="0"
       orient="auto-start-reverse"
       inkscape:stockid="Wide arrow"
       markerWidth="1"
       markerHeight="1"
       viewBox="0 0 1 1"
       inkscape:isstock="true"
       inkscape:collect="always"
       preserveAspectRatio="xMidYMid">
      <path
         style="fill:none;stroke:context-stroke;stroke-width:1;stroke-linecap:butt"
         d="M 3,-3 0,0 3,3"
         transform="rotate(180,0.125,0)"
         sodipodi:nodetypes="ccc"
         id="path2992" />
    </marker>
    <marker
       style="overflow:visible"
       id="ArrowWide"
       refX="0"
       refY="0"
       orient="auto-start-reverse"
       inkscape:stockid="Wide arrow"
       markerWidth="1"
       markerHeight="1"
       viewBox="0 0 1 1"
       inkscape:isstock="true"
       inkscape:collect="always"
       preserveAspectRatio="xMidYMid">
      <path
         style="fill:none;stroke:context-stroke;stroke-width:1;stroke-linecap:butt"
         d="M 3,-3 0,0 3,3"
         transform="rotate(180,0.125,0)"
         sodipodi:nodetypes="ccc"
         id="path1" />
    </marker>
    <marker
       style="overflow:visible"
       id="ArrowWide-6"
       refX="0"
       refY="0"
       orient="auto-start-reverse"
       inkscape:stockid="Wide arrow"
       markerWidth="1"
       markerHeight="1"
       viewBox="0 0 1 1"
       inkscape:isstock="true"
       inkscape:collect="always"
       preserveAspectRatio="xMidYMid">
      <path
         style="fill:none;stroke:context-stroke;stroke-width:1;stroke-linecap:butt"
         d="M 3,-3 0,0 3,3"
         transform="rotate(180,0.125,0)"
         sodipodi:nodetypes="ccc"
         id="path1-7" />
    </marker>
    <marker
       style="overflow:visible"
       id="marker2992-2"
       refX="0"
       refY="0"
       orient="auto-start-reverse"
       inkscape:stockid="Wide arrow"
       markerWidth="1"
       markerHeight="1"
       viewBox="0 0 1 1"
       inkscape:isstock="true"
       inkscape:collect="always"
       preserveAspectRatio="xMidYMid">
      <path
         style="fill:none;stroke:context-stroke;stroke-width:1;stroke-linecap:butt"
         d="M 3,-3 0,0 3,3"
         transform="rotate(180,0.125,0)"
         sodipodi:nodetypes="ccc"
         id="path2992-7" />
    </marker>
  </defs>
  <g
     id="g2990"
     transform="translate(-522.301,-185.429)">
    <circle
       fill="#b2b2b2"
       cx="525.30103"
       cy="659.5"
       r="2"
       id="circle1" />
    <circle
       fill="#b2b2b2"
       cx="525.30103"
       cy="1130.5699"
       r="2"
       id="circle2" />
    <circle
       fill="#b2b2b2"
       cx="1506.7"
       cy="1130.5699"
       r="2"
       id="circle3" />
    <circle
       fill="#b2b2b2"
       cx="1506.7"
       cy="659.5"
       r="2"
       id="circle4" />
    <circle
       fill="#b2b2b2"
       cx="957.11603"
       cy="659.5"
       r="2"
       id="circle5" />
    <circle
       fill="#b2b2b2"
       cx="525.30103"
       cy="659.5"
       r="2"
       id="circle6" />
    <circle
       fill="#b2b2b2"
       cx="525.30103"
       cy="188.429"
       r="2"
       id="circle7" />
    <circle
       fill="#b2b2b2"
       cx="1506.7"
       cy="188.429"
       r="2"
       id="circle8" />
    <circle
       fill="#b2b2b2"
       cx="623.44"
       cy="875.40802"
       r="2"
       id="circle9" />
    <circle
       fill="#b2b2b2"
       cx="721.58002"
       cy="875.40802"
       r="2"
       id="circle10" />
    <circle
       fill="#b2b2b2"
       cx="819.71997"
       cy="875.40802"
       r="2"
       id="circle11" />
    <circle
       fill="#b2b2b2"
       cx="623.44"
       cy="443.59201"
       r="2"
       id="circle12" />
    <circle
       fill="#b2b2b2"
       cx="721.58002"
       cy="443.59201"
       r="2"
       id="circle13" />
    <circle
       fill="#b2b2b2"
       cx="819.71997"
       cy="443.59201"
       r="2"
       id="circle14" />
    <g
       id="g2991">
      <polyline
         fill="none"
         stroke="#0000ff"
         stroke-width="2"
         stroke-linecap="butt"
         stroke-linejoin="miter"
         points="525.301,659.5 525.301,1130.57 1506.7,1130.57 1506.7,659.5 957.116,659.5 525.301,659.5 525.301,188.429 1506.7,188.429 1506.7,659.5"
         id="polyline14"
         style="stroke:#190f3c;stroke-width:6;stroke-dasharray:none" />
      <rect
         style="fill:#ffffff;stroke:none;stroke-width:12;stroke-dasharray:none"
         id="rect2990"
         width="546.57599"
         height="24.140968"
         x="957.11609"
         y="647.42902"
         transform="translate(2.4999999e-6)" />
    </g>
    <polyline
       fill="none"
       stroke="#0000ff"
       stroke-width="2"
       stroke-linecap="butt"
       stroke-linejoin="miter"
       points="957.116,659.5 525.301,659.5"
       id="polyline15"
       style="stroke:#190f3c;stroke-width:6;stroke-dasharray:none" />
    <polyline
       fill="none"
       stroke="#0000ff"
       stroke-width="2"
       stroke-linecap="butt"
       stroke-linejoin="miter"
       points="623.44,875.408 623.516,879.261 623.743,883.108 624.121,886.943 624.649,890.76 625.326,894.554 626.152,898.318 627.125,902.047 628.244,905.735 629.506,909.376 630.911,912.964 632.455,916.495 634.137,919.962 635.954,923.361 637.902,926.686 639.98,929.931 642.184,933.093 644.509,936.166 646.954,939.144 649.514,942.025 652.185,944.803 654.963,947.474 657.844,950.034 660.823,952.479 663.895,954.805 667.057,957.008 670.302,959.086 673.627,961.034 677.026,962.851 680.493,964.533 684.024,966.077 687.612,967.482 691.253,968.744 694.941,969.863 698.67,970.836 702.434,971.662 706.228,972.339 710.045,972.867 713.88,973.245 717.727,973.472 721.58,973.548 725.433,973.472 729.28,973.245 733.115,972.867 736.933,972.339 740.727,971.662 744.491,970.836 748.219,969.863 751.907,968.744 755.548,967.482 759.137,966.077 762.668,964.533 766.135,962.851 769.534,961.034 772.858,959.086 776.104,957.008 779.266,954.805 782.338,952.479 785.317,950.034 788.198,947.474 790.976,944.803 793.647,942.025 796.206,939.144 798.651,936.166 800.977,933.093 803.181,929.931 805.258,926.686 807.207,923.361 809.024,919.962 810.705,916.495 812.25,912.964 813.654,909.376 814.917,905.735 816.036,902.047 817.009,898.318 817.834,894.554 818.512,890.76 819.04,886.943 819.418,883.108 819.645,879.261 819.72,875.408 819.645,871.555 819.418,867.708 819.04,863.873 818.512,860.055 817.834,856.262 817.009,852.497 816.036,848.769 814.917,845.081 813.654,841.44 812.25,837.851 810.705,834.32 809.024,830.853 807.207,827.455 805.258,824.13 803.181,820.884 800.977,817.723 798.651,814.65 796.206,811.671 793.647,808.79 790.976,806.012 788.198,803.341 785.317,800.782 782.338,798.337 779.266,796.011 776.104,793.807 772.858,791.73 769.534,789.781 766.135,787.964 762.668,786.283 759.137,784.738 755.548,783.334 751.907,782.071 748.219,780.953 744.491,779.979 740.727,779.154 736.933,778.476 733.115,777.948 729.28,777.57 725.433,777.344 721.58,777.268 717.727,777.344 713.88,777.57 710.045,777.948 706.228,778.476 702.434,779.154 698.67,779.979 694.941,780.953 691.253,782.071 687.612,783.334 684.024,784.738 680.493,786.283 677.026,787.964 673.627,789.781 670.302,791.73 667.057,793.807 663.895,796.011 660.823,798.337 657.844,800.782 654.963,803.341 652.185,806.012 649.514,808.79 646.954,811.671 644.509,814.65 642.184,817.723 639.98,820.884 637.902,824.13 635.954,827.455 634.137,830.853 632.455,834.32 630.911,837.851 629.506,841.44 628.244,845.081 627.125,848.769 626.152,852.497 625.326,856.262 624.649,860.055 624.121,863.873 623.743,867.708 623.516,871.555 623.44,875.408"
       id="polyline16"
       style="stroke:#190f3c;stroke-width:6;stroke-dasharray:none" />
    <polyline
       fill="none"
       stroke="#0000ff"
       stroke-width="2"
       stroke-linecap="butt"
       stroke-linejoin="miter"
       points="623.44,443.592 623.516,447.445 623.743,451.292 624.121,455.127 624.649,458.945 625.326,462.738 626.152,466.503 627.125,470.231 628.244,473.919 629.506,477.56 630.911,481.149 632.455,484.679 634.137,488.147 635.954,491.546 637.902,494.87 639.98,498.116 642.184,501.277 644.509,504.35 646.954,507.329 649.514,510.21 652.185,512.988 654.963,515.659 657.844,518.218 660.823,520.663 663.895,522.989 667.057,525.193 670.302,527.27 673.627,529.219 677.026,531.036 680.493,532.717 684.024,534.262 687.612,535.666 691.253,536.929 694.941,538.047 698.67,539.021 702.434,539.846 706.228,540.524 710.045,541.052 713.88,541.43 717.727,541.656 721.58,541.732 725.433,541.656 729.28,541.43 733.115,541.052 736.933,540.524 740.727,539.846 744.491,539.021 748.219,538.047 751.907,536.929 755.548,535.666 759.137,534.262 762.668,532.717 766.135,531.036 769.534,529.219 772.858,527.27 776.104,525.193 779.266,522.989 782.338,520.663 785.317,518.218 788.198,515.659 790.976,512.988 793.647,510.21 796.206,507.329 798.651,504.35 800.977,501.277 803.181,498.116 805.258,494.87 807.207,491.546 809.024,488.147 810.705,484.679 812.25,481.149 813.654,477.56 814.917,473.919 816.036,470.231 817.009,466.503 817.834,462.738 818.512,458.945 819.04,455.127 819.418,451.292 819.645,447.445 819.72,443.592 819.645,439.739 819.418,435.892 819.04,432.057 818.512,428.24 817.834,424.446 817.009,420.682 816.036,416.953 814.917,413.265 813.654,409.624 812.25,406.036 810.705,402.505 809.024,399.038 807.207,395.639 805.258,392.314 803.181,389.069 800.977,385.907 798.651,382.834 796.206,379.855 793.647,376.975 790.976,374.197 788.198,371.526 785.317,368.966 782.338,366.521 779.266,364.195 776.104,361.992 772.858,359.914 769.534,357.966 766.135,356.149 762.668,354.467 759.137,352.923 755.548,351.518 751.907,350.256 748.219,349.137 744.491,348.164 740.727,347.338 736.933,346.661 733.115,346.133 729.28,345.755 725.433,345.528 721.58,345.452 717.727,345.528 713.88,345.755 710.045,346.133 706.228,346.661 702.434,347.338 698.67,348.164 694.941,349.137 691.253,350.256 687.612,351.518 684.024,352.923 680.493,354.467 677.026,356.149 673.627,357.966 670.302,359.914 667.057,361.992 663.895,364.195 660.823,366.521 657.844,368.966 654.963,371.526 652.185,374.197 649.514,376.975 646.954,379.855 644.509,382.834 642.184,385.907 639.98,389.069 637.902,392.314 635.954,395.639 634.137,399.038 632.455,402.505 630.911,406.036 629.506,409.624 628.244,413.265 627.125,416.953 626.152,420.682 625.326,424.446 624.649,428.24 624.121,432.057 623.743,435.892 623.516,439.739 623.44,443.592"
       id="polyline17"
       style="stroke:#190f3c;stroke-width:6;stroke-dasharray:none" />
    <path
       style="fill:#ff808b;stroke:#ff808b;stroke-width:6;stroke-dasharray:none;marker-end:url(#ArrowWide)"
       d="M 721.58002,443.59201 V 260.18472"
       id="path2990" />
    <path
       style="fill:#ff808b;stroke:#ff808b;stroke-width:6;stroke-dasharray:none;marker-end:url(#ArrowWide-6)"
       d="m 721.58002,875.408 v 183.4072"
       id="path2990-3" />
    <text
       xml:space="preserve"
       style="font-size:82px;line-height:1;font-family:'Century Gothic';-inkscape-font-specification:'Century Gothic';text-align:start;text-decoration-color:#000000;writing-mode:lr-tb;direction:ltr;text-anchor:start;fill:#ff808b;stroke:none;stroke-width:6;stroke-dasharray:none"
       x="751.79871"
       y="313.33954"
       id="text2990"><tspan
         sodipodi:role="line"
         id="tspan2990"
         style="font-size:82px;fill:#ff808b;stroke:none;stroke-width:6"
         x="751.79871"
         y="313.33954">P</tspan></text>
    <text
       xml:space="preserve"
       style="font-size:82px;line-height:1;font-family:'Century Gothic';-inkscape-font-specification:'Century Gothic';text-align:start;text-decoration-color:#000000;writing-mode:lr-tb;direction:ltr;text-anchor:start;fill:#ff808b;stroke:none;stroke-width:6;stroke-dasharray:none"
       x="751.79871"
       y="1064.5579"
       id="text2990-2"><tspan
         sodipodi:role="line"
         id="tspan2990-9"
         style="font-size:82px;fill:#ff808b;stroke:none;stroke-width:6"
         x="751.79871"
         y="1064.5579">P</tspan></text>
    <path
       style="fill:#ffffff;stroke:#3746ff;stroke-width:6;stroke-dasharray:none;marker-start:url(#marker2992);marker-end:url(#marker2992)"
       d="M 728.97853,600.92901 H 954.36661"
       id="path2991" />
    <path
       style="fill:#ffffff;stroke:#ff808b;stroke-width:3;stroke-dasharray:3,3;stroke-dashoffset:0"
       d="M 721.58002,443.59202 V 875.40803"
       id="path2993" />
    <text
       xml:space="preserve"
       style="font-size:81.9997px;line-height:1;font-family:'Century Gothic';-inkscape-font-specification:'Century Gothic';text-align:start;text-decoration-color:#000000;writing-mode:lr-tb;direction:ltr;text-anchor:start;fill:#3746ff;stroke:none;stroke-width:6;stroke-dasharray:none;stroke-dashoffset:0"
       x="814.70636"
       y="579.68658"
       id="text2993"><tspan
         sodipodi:role="line"
         id="tspan2993"
         style="fill:#3746ff;stroke:none;stroke-width:6;stroke-dasharray:none"
         x="814.70636"
         y="579.68658">a</tspan></text>
    <path
       style="fill:#ffffff;stroke:#3746ff;stroke-width:5.99999;stroke-dasharray:none;marker-start:url(#marker2992-2);marker-end:url(#marker2992-2)"
       d="M 728.91661,715.09052 H 1497.8551"
       id="path2991-3" />
    <text
       xml:space="preserve"
       style="font-size:81.9997px;line-height:1;font-family:'Century Gothic';-inkscape-font-specification:'Century Gothic';text-align:start;text-decoration-color:#000000;writing-mode:lr-tb;direction:ltr;text-anchor:start;fill:#3746ff;stroke:none;stroke-width:6;stroke-dasharray:none;stroke-dashoffset:0"
       x="1084.0974"
       y="693.84814"
       id="text2993-6"><tspan
         sodipodi:role="line"
         id="tspan2993-0"
         style="fill:#3746ff;stroke:none;stroke-width:6;stroke-dasharray:none"
         x="1084.0974"
         y="693.84814">b</tspan></text>
  </g>
</svg>
