<?xml version="1.0" encoding="utf-8" standalone="no"?>
<!DOCTYPE svg PUBLIC "-//W3C//DTD SVG 1.1//EN"
  "http://www.w3.org/Graphics/SVG/1.1/DTD/svg11.dtd">
<svg xmlns:xlink="http://www.w3.org/1999/xlink" width="360pt" height="288pt" viewBox="0 0 360 288" xmlns="http://www.w3.org/2000/svg" version="1.1">
 <metadata>
  <rdf:RDF xmlns:dc="http://purl.org/dc/elements/1.1/" xmlns:cc="http://creativecommons.org/ns#" xmlns:rdf="http://www.w3.org/1999/02/22-rdf-syntax-ns#">
   <cc:Work>
    <dc:type rdf:resource="http://purl.org/dc/dcmitype/StillImage"/>
    <dc:date>2025-12-05T11:16:26.070894</dc:date>
    <dc:format>image/svg+xml</dc:format>
    <dc:creator>
     <cc:Agent>
      <dc:title>Matplotlib v3.8.0, https://matplotlib.org/</dc:title>
     </cc:Agent>
    </dc:creator>
   </cc:Work>
  </rdf:RDF>
 </metadata>
 <defs>
  <style type="text/css">*{stroke-linejoin: round; stroke-linecap: butt}</style>
 </defs>
 <g id="figure_1">
  <g id="patch_1">
   <path d="M 0 288 
L 360 288 
L 360 0 
L 0 0 
z
" style="fill: #ffffff"/>
  </g>
  <g id="patch_2">
   <path d="M 65.562 277.2 
L 294.438 277.2 
L 294.438 48.324 
L 65.562 48.324 
z
" style="fill: #ffffff"/>
  </g>
  <g id="pane3d_1">
   <g id="patch_3">
    <path d="M 82.843716 220.766513 
L 158.426046 157.411906 
L 157.37538 66.043236 
L 78.176045 123.839302 
" style="fill: #f2f2f2; opacity: 0.5; stroke: #f2f2f2; stroke-linejoin: miter"/>
   </g>
  </g>
  <g id="pane3d_2">
   <g id="patch_4">
    <path d="M 158.426046 157.411906 
L 279.708718 192.66399 
L 284.036869 98.148231 
L 157.37538 66.043236 
" style="fill: #e6e6e6; opacity: 0.5; stroke: #e6e6e6; stroke-linejoin: miter"/>
   </g>
  </g>
  <g id="pane3d_3">
   <g id="patch_5">
    <path d="M 82.843716 220.766513 
L 211.409272 262.756024 
L 279.708718 192.66399 
L 158.426046 157.411906 
" style="fill: #ececec; opacity: 0.5; stroke: #ececec; stroke-linejoin: miter"/>
   </g>
  </g>
  <g id="grid3d_1">
   <g id="Line3DCollection_1">
    <path d="M 90.158595 223.155553 
L 165.355346 159.425979 
L 164.597599 67.873858 
" style="fill: none; stroke: #b0b0b0; stroke-width: 0.8"/>
    <path d="M 108.327446 229.089499 
L 182.551406 164.424195 
L 182.528104 72.418718 
" style="fill: none; stroke: #b0b0b0; stroke-width: 0.8"/>
    <path d="M 126.775666 235.114688 
L 199.989907 169.492879 
L 200.722362 77.030432 
" style="fill: none; stroke: #b0b0b0; stroke-width: 0.8"/>
    <path d="M 145.509749 241.233239 
L 217.676011 174.633531 
L 219.186236 81.710486 
" style="fill: none; stroke: #b0b0b0; stroke-width: 0.8"/>
    <path d="M 164.536391 247.447341 
L 235.61503 179.847696 
L 237.925763 86.46041 
" style="fill: none; stroke: #b0b0b0; stroke-width: 0.8"/>
    <path d="M 183.862499 253.759247 
L 253.812428 185.136961 
L 256.947163 91.28178 
" style="fill: none; stroke: #b0b0b0; stroke-width: 0.8"/>
    <path d="M 203.495198 260.171287 
L 272.273827 190.502961 
L 276.256844 96.176222 
" style="fill: none; stroke: #b0b0b0; stroke-width: 0.8"/>
   </g>
  </g>
  <g id="grid3d_2">
   <g id="Line3DCollection_2">
    <path d="M 83.121467 120.230359 
L 87.546508 216.82454 
L 215.676546 258.376751 
" style="fill: none; stroke: #b0b0b0; stroke-width: 0.8"/>
    <path d="M 95.512968 111.187606 
L 99.339848 206.939128 
L 226.3674 247.405304 
" style="fill: none; stroke: #b0b0b0; stroke-width: 0.8"/>
    <path d="M 107.576772 102.383991 
L 110.834765 197.303861 
L 236.773545 236.726039 
" style="fill: none; stroke: #b0b0b0; stroke-width: 0.8"/>
    <path d="M 119.325709 93.810152 
L 122.042445 187.909362 
L 246.906205 226.327438 
" style="fill: none; stroke: #b0b0b0; stroke-width: 0.8"/>
    <path d="M 130.771946 85.45721 
L 132.97352 178.746718 
L 256.776022 216.198578 
" style="fill: none; stroke: #b0b0b0; stroke-width: 0.8"/>
    <path d="M 141.927033 77.316735 
L 143.638106 169.80745 
L 266.39309 206.3291 
" style="fill: none; stroke: #b0b0b0; stroke-width: 0.8"/>
    <path d="M 152.801939 69.380724 
L 154.045831 161.083489 
L 275.766997 196.709165 
" style="fill: none; stroke: #b0b0b0; stroke-width: 0.8"/>
   </g>
  </g>
  <g id="grid3d_3">
   <g id="Line3DCollection_3">
    <path d="M 279.84727 189.638372 
L 158.392344 154.481049 
L 82.69454 217.668761 
" style="fill: none; stroke: #b0b0b0; stroke-width: 0.8"/>
    <path d="M 280.588861 173.443907 
L 158.21203 138.800526 
L 81.895805 201.082516 
" style="fill: none; stroke: #b0b0b0; stroke-width: 0.8"/>
    <path d="M 281.341909 156.999274 
L 158.029065 122.889386 
L 81.084259 184.230247 
" style="fill: none; stroke: #b0b0b0; stroke-width: 0.8"/>
    <path d="M 282.10668 140.29863 
L 157.843389 106.742501 
L 80.259592 167.1055 
" style="fill: none; stroke: #b0b0b0; stroke-width: 0.8"/>
    <path d="M 282.88345 123.33595 
L 157.654941 90.354595 
L 79.421483 149.701614 
" style="fill: none; stroke: #b0b0b0; stroke-width: 0.8"/>
    <path d="M 283.672505 106.105019 
L 157.463659 73.720229 
L 78.5696 132.011707 
" style="fill: none; stroke: #b0b0b0; stroke-width: 0.8"/>
   </g>
  </g>
  <g id="axis3d_1">
   <g id="line2d_1">
    <path d="M 82.843716 220.766513 
L 211.409272 262.756024 
" style="fill: none; stroke: #000000; stroke-width: 0.8; stroke-linecap: square"/>
   </g>
   <g id="xtick_1">
    <g id="line2d_2">
     <path d="M 90.813394 222.600608 
L 88.846189 224.267823 
" style="fill: none; stroke: #000000; stroke-width: 0.8; stroke-linecap: square"/>
    </g>
    <g id="text_1">
     <!-- 0.2 -->
     <g transform="translate(74.672886 246.470416) scale(0.1 -0.1)">
      <defs>
       <path id="DejaVuSans-30" d="M 2034 4250 
Q 1547 4250 1301 3770 
Q 1056 3291 1056 2328 
Q 1056 1369 1301 889 
Q 1547 409 2034 409 
Q 2525 409 2770 889 
Q 3016 1369 3016 2328 
Q 3016 3291 2770 3770 
Q 2525 4250 2034 4250 
z
M 2034 4750 
Q 2819 4750 3233 4129 
Q 3647 3509 3647 2328 
Q 3647 1150 3233 529 
Q 2819 -91 2034 -91 
Q 1250 -91 836 529 
Q 422 1150 422 2328 
Q 422 3509 836 4129 
Q 1250 4750 2034 4750 
z
" transform="scale(0.015625)"/>
       <path id="DejaVuSans-2e" d="M 684 794 
L 1344 794 
L 1344 0 
L 684 0 
L 684 794 
z
" transform="scale(0.015625)"/>
       <path id="DejaVuSans-32" d="M 1228 531 
L 3431 531 
L 3431 0 
L 469 0 
L 469 531 
Q 828 903 1448 1529 
Q 2069 2156 2228 2338 
Q 2531 2678 2651 2914 
Q 2772 3150 2772 3378 
Q 2772 3750 2511 3984 
Q 2250 4219 1831 4219 
Q 1534 4219 1204 4116 
Q 875 4013 500 3803 
L 500 4441 
Q 881 4594 1212 4672 
Q 1544 4750 1819 4750 
Q 2544 4750 2975 4387 
Q 3406 4025 3406 3419 
Q 3406 3131 3298 2873 
Q 3191 2616 2906 2266 
Q 2828 2175 2409 1742 
Q 1991 1309 1228 531 
z
" transform="scale(0.015625)"/>
      </defs>
      <use xlink:href="#DejaVuSans-30"/>
      <use xlink:href="#DejaVuSans-2e" x="63.623047"/>
      <use xlink:href="#DejaVuSans-32" x="95.410156"/>
     </g>
    </g>
   </g>
   <g id="xtick_2">
    <g id="line2d_3">
     <path d="M 108.974174 228.526058 
L 107.031194 230.218819 
" style="fill: none; stroke: #000000; stroke-width: 0.8; stroke-linecap: square"/>
    </g>
    <g id="text_2">
     <!-- 0.3 -->
     <g transform="translate(92.863165 252.550647) scale(0.1 -0.1)">
      <defs>
       <path id="DejaVuSans-33" d="M 2597 2516 
Q 3050 2419 3304 2112 
Q 3559 1806 3559 1356 
Q 3559 666 3084 287 
Q 2609 -91 1734 -91 
Q 1441 -91 1130 -33 
Q 819 25 488 141 
L 488 750 
Q 750 597 1062 519 
Q 1375 441 1716 441 
Q 2309 441 2620 675 
Q 2931 909 2931 1356 
Q 2931 1769 2642 2001 
Q 2353 2234 1838 2234 
L 1294 2234 
L 1294 2753 
L 1863 2753 
Q 2328 2753 2575 2939 
Q 2822 3125 2822 3475 
Q 2822 3834 2567 4026 
Q 2313 4219 1838 4219 
Q 1578 4219 1281 4162 
Q 984 4106 628 3988 
L 628 4550 
Q 988 4650 1302 4700 
Q 1616 4750 1894 4750 
Q 2613 4750 3031 4423 
Q 3450 4097 3450 3541 
Q 3450 3153 3228 2886 
Q 3006 2619 2597 2516 
z
" transform="scale(0.015625)"/>
      </defs>
      <use xlink:href="#DejaVuSans-30"/>
      <use xlink:href="#DejaVuSans-2e" x="63.623047"/>
      <use xlink:href="#DejaVuSans-33" x="95.410156"/>
     </g>
    </g>
   </g>
   <g id="xtick_3">
    <g id="line2d_4">
     <path d="M 127.413998 234.542553 
L 125.496223 236.261451 
" style="fill: none; stroke: #000000; stroke-width: 0.8; stroke-linecap: square"/>
    </g>
    <g id="text_3">
     <!-- 0.4 -->
     <g transform="translate(111.334371 258.724779) scale(0.1 -0.1)">
      <defs>
       <path id="DejaVuSans-34" d="M 2419 4116 
L 825 1625 
L 2419 1625 
L 2419 4116 
z
M 2253 4666 
L 3047 4666 
L 3047 1625 
L 3713 1625 
L 3713 1100 
L 3047 1100 
L 3047 0 
L 2419 0 
L 2419 1100 
L 313 1100 
L 313 1709 
L 2253 4666 
z
" transform="scale(0.015625)"/>
      </defs>
      <use xlink:href="#DejaVuSans-30"/>
      <use xlink:href="#DejaVuSans-2e" x="63.623047"/>
      <use xlink:href="#DejaVuSans-34" x="95.410156"/>
     </g>
    </g>
   </g>
   <g id="xtick_4">
    <g id="line2d_5">
     <path d="M 146.139345 240.652207 
L 144.247793 242.397854 
" style="fill: none; stroke: #000000; stroke-width: 0.8; stroke-linecap: square"/>
    </g>
    <g id="text_4">
     <!-- 0.5 -->
     <g transform="translate(130.093062 264.995006) scale(0.1 -0.1)">
      <defs>
       <path id="DejaVuSans-35" d="M 691 4666 
L 3169 4666 
L 3169 4134 
L 1269 4134 
L 1269 2991 
Q 1406 3038 1543 3061 
Q 1681 3084 1819 3084 
Q 2600 3084 3056 2656 
Q 3513 2228 3513 1497 
Q 3513 744 3044 326 
Q 2575 -91 1722 -91 
Q 1428 -91 1123 -41 
Q 819 9 494 109 
L 494 744 
Q 775 591 1075 516 
Q 1375 441 1709 441 
Q 2250 441 2565 725 
Q 2881 1009 2881 1497 
Q 2881 1984 2565 2268 
Q 2250 2553 1709 2553 
Q 1456 2553 1204 2497 
Q 953 2441 691 2322 
L 691 4666 
z
" transform="scale(0.015625)"/>
      </defs>
      <use xlink:href="#DejaVuSans-30"/>
      <use xlink:href="#DejaVuSans-2e" x="63.623047"/>
      <use xlink:href="#DejaVuSans-35" x="95.410156"/>
     </g>
    </g>
   </g>
   <g id="xtick_5">
    <g id="line2d_6">
     <path d="M 165.1569 246.857203 
L 163.292628 248.630227 
" style="fill: none; stroke: #000000; stroke-width: 0.8; stroke-linecap: square"/>
    </g>
    <g id="text_5">
     <!-- 0.6 -->
     <g transform="translate(149.146002 271.363588) scale(0.1 -0.1)">
      <defs>
       <path id="DejaVuSans-36" d="M 2113 2584 
Q 1688 2584 1439 2293 
Q 1191 2003 1191 1497 
Q 1191 994 1439 701 
Q 1688 409 2113 409 
Q 2538 409 2786 701 
Q 3034 994 3034 1497 
Q 3034 2003 2786 2293 
Q 2538 2584 2113 2584 
z
M 3366 4563 
L 3366 3988 
Q 3128 4100 2886 4159 
Q 2644 4219 2406 4219 
Q 1781 4219 1451 3797 
Q 1122 3375 1075 2522 
Q 1259 2794 1537 2939 
Q 1816 3084 2150 3084 
Q 2853 3084 3261 2657 
Q 3669 2231 3669 1497 
Q 3669 778 3244 343 
Q 2819 -91 2113 -91 
Q 1303 -91 875 529 
Q 447 1150 447 2328 
Q 447 3434 972 4092 
Q 1497 4750 2381 4750 
Q 2619 4750 2861 4703 
Q 3103 4656 3366 4563 
z
" transform="scale(0.015625)"/>
      </defs>
      <use xlink:href="#DejaVuSans-30"/>
      <use xlink:href="#DejaVuSans-2e" x="63.623047"/>
      <use xlink:href="#DejaVuSans-36" x="95.410156"/>
     </g>
    </g>
   </g>
   <g id="xtick_6">
    <g id="line2d_7">
     <path d="M 184.473555 253.159788 
L 182.63766 254.960839 
" style="fill: none; stroke: #000000; stroke-width: 0.8; stroke-linecap: square"/>
    </g>
    <g id="text_6">
     <!-- 0.7 -->
     <g transform="translate(168.50017 277.832857) scale(0.1 -0.1)">
      <defs>
       <path id="DejaVuSans-37" d="M 525 4666 
L 3525 4666 
L 3525 4397 
L 1831 0 
L 1172 0 
L 2766 4134 
L 525 4134 
L 525 4666 
z
" transform="scale(0.015625)"/>
      </defs>
      <use xlink:href="#DejaVuSans-30"/>
      <use xlink:href="#DejaVuSans-2e" x="63.623047"/>
      <use xlink:href="#DejaVuSans-37" x="95.410156"/>
     </g>
    </g>
   </g>
   <g id="xtick_7">
    <g id="line2d_8">
     <path d="M 204.096424 259.562284 
L 202.290044 261.392031 
" style="fill: none; stroke: #000000; stroke-width: 0.8; stroke-linecap: square"/>
    </g>
    <g id="text_7">
     <!-- 0.8 -->
     <g transform="translate(188.162767 284.405221) scale(0.1 -0.1)">
      <defs>
       <path id="DejaVuSans-38" d="M 2034 2216 
Q 1584 2216 1326 1975 
Q 1069 1734 1069 1313 
Q 1069 891 1326 650 
Q 1584 409 2034 409 
Q 2484 409 2743 651 
Q 3003 894 3003 1313 
Q 3003 1734 2745 1975 
Q 2488 2216 2034 2216 
z
M 1403 2484 
Q 997 2584 770 2862 
Q 544 3141 544 3541 
Q 544 4100 942 4425 
Q 1341 4750 2034 4750 
Q 2731 4750 3128 4425 
Q 3525 4100 3525 3541 
Q 3525 3141 3298 2862 
Q 3072 2584 2669 2484 
Q 3125 2378 3379 2068 
Q 3634 1759 3634 1313 
Q 3634 634 3220 271 
Q 2806 -91 2034 -91 
Q 1263 -91 848 271 
Q 434 634 434 1313 
Q 434 1759 690 2068 
Q 947 2378 1403 2484 
z
M 1172 3481 
Q 1172 3119 1398 2916 
Q 1625 2713 2034 2713 
Q 2441 2713 2670 2916 
Q 2900 3119 2900 3481 
Q 2900 3844 2670 4047 
Q 2441 4250 2034 4250 
Q 1625 4250 1398 4047 
Q 1172 3844 1172 3481 
z
" transform="scale(0.015625)"/>
      </defs>
      <use xlink:href="#DejaVuSans-30"/>
      <use xlink:href="#DejaVuSans-2e" x="63.623047"/>
      <use xlink:href="#DejaVuSans-38" x="95.410156"/>
     </g>
    </g>
   </g>
   <g id="text_8">
    <!-- $L_c / L$ -->
    <g transform="translate(105.731131 275.856037) rotate(-341.912962) scale(0.24 -0.24)">
     <defs>
      <path id="DejaVuSans-Oblique-4c" d="M 1075 4666 
L 1709 4666 
L 909 525 
L 3181 525 
L 3078 0 
L 172 0 
L 1075 4666 
z
" transform="scale(0.015625)"/>
      <path id="DejaVuSans-Oblique-63" d="M 3431 3366 
L 3316 2797 
Q 3109 2947 2876 3022 
Q 2644 3097 2394 3097 
Q 2119 3097 1870 3000 
Q 1622 2903 1453 2725 
Q 1184 2453 1037 2087 
Q 891 1722 891 1331 
Q 891 859 1127 628 
Q 1363 397 1844 397 
Q 2081 397 2348 469 
Q 2616 541 2906 684 
L 2797 116 
Q 2547 13 2283 -39 
Q 2019 -91 1741 -91 
Q 1044 -91 669 257 
Q 294 606 294 1253 
Q 294 1797 489 2255 
Q 684 2713 1069 3078 
Q 1331 3328 1684 3456 
Q 2038 3584 2456 3584 
Q 2700 3584 2940 3529 
Q 3181 3475 3431 3366 
z
" transform="scale(0.015625)"/>
      <path id="DejaVuSans-2f" d="M 1625 4666 
L 2156 4666 
L 531 -594 
L 0 -594 
L 1625 4666 
z
" transform="scale(0.015625)"/>
     </defs>
     <use xlink:href="#DejaVuSans-Oblique-4c" transform="translate(0 0.09375)"/>
     <use xlink:href="#DejaVuSans-Oblique-63" transform="translate(55.712891 -16.3125) scale(0.7)"/>
     <use xlink:href="#DejaVuSans-2f" transform="translate(96.933594 0.09375)"/>
     <use xlink:href="#DejaVuSans-Oblique-4c" transform="translate(130.625 0.09375)"/>
    </g>
   </g>
  </g>
  <g id="axis3d_2">
   <g id="line2d_9">
    <path d="M 279.708718 192.66399 
L 211.409272 262.756024 
" style="fill: none; stroke: #000000; stroke-width: 0.8; stroke-linecap: square"/>
   </g>
   <g id="xtick_8">
    <g id="line2d_10">
     <path d="M 214.596758 258.026579 
L 217.838915 259.078001 
" style="fill: none; stroke: #000000; stroke-width: 0.8; stroke-linecap: square"/>
    </g>
    <g id="text_9">
     <!-- 0.2 -->
     <g transform="translate(220.614018 279.407896) scale(0.1 -0.1)">
      <use xlink:href="#DejaVuSans-30"/>
      <use xlink:href="#DejaVuSans-2e" x="63.623047"/>
      <use xlink:href="#DejaVuSans-32" x="95.410156"/>
     </g>
    </g>
   </g>
   <g id="xtick_9">
    <g id="line2d_11">
     <path d="M 225.297636 247.064518 
L 228.509659 248.087747 
" style="fill: none; stroke: #000000; stroke-width: 0.8; stroke-linecap: square"/>
    </g>
    <g id="text_10">
     <!-- 0.3 -->
     <g transform="translate(231.13816 268.247508) scale(0.1 -0.1)">
      <use xlink:href="#DejaVuSans-30"/>
      <use xlink:href="#DejaVuSans-2e" x="63.623047"/>
      <use xlink:href="#DejaVuSans-33" x="95.410156"/>
     </g>
    </g>
   </g>
   <g id="xtick_10">
    <g id="line2d_12">
     <path d="M 235.713657 236.394266 
L 238.895992 237.390422 
" style="fill: none; stroke: #000000; stroke-width: 0.8; stroke-linecap: square"/>
    </g>
    <g id="text_11">
     <!-- 0.4 -->
     <g transform="translate(241.381842 257.384534) scale(0.1 -0.1)">
      <use xlink:href="#DejaVuSans-30"/>
      <use xlink:href="#DejaVuSans-2e" x="63.623047"/>
      <use xlink:href="#DejaVuSans-34" x="95.410156"/>
     </g>
    </g>
   </g>
   <g id="xtick_11">
    <g id="line2d_13">
     <path d="M 245.856046 226.004325 
L 249.009134 226.974467 
" style="fill: none; stroke: #000000; stroke-width: 0.8; stroke-linecap: square"/>
    </g>
    <g id="text_12">
     <!-- 0.5 -->
     <g transform="translate(251.356128 246.807242) scale(0.1 -0.1)">
      <use xlink:href="#DejaVuSans-30"/>
      <use xlink:href="#DejaVuSans-2e" x="63.623047"/>
      <use xlink:href="#DejaVuSans-35" x="95.410156"/>
     </g>
    </g>
   </g>
   <g id="xtick_12">
    <g id="line2d_14">
     <path d="M 255.735447 215.883791 
L 258.859724 216.828925 
" style="fill: none; stroke: #000000; stroke-width: 0.8; stroke-linecap: square"/>
    </g>
    <g id="text_13">
     <!-- 0.6 -->
     <g transform="translate(261.071508 236.504509) scale(0.1 -0.1)">
      <use xlink:href="#DejaVuSans-30"/>
      <use xlink:href="#DejaVuSans-2e" x="63.623047"/>
      <use xlink:href="#DejaVuSans-36" x="95.410156"/>
     </g>
    </g>
   </g>
   <g id="xtick_13">
    <g id="line2d_15">
     <path d="M 265.361957 206.02232 
L 268.457855 206.943402 
" style="fill: none; stroke: #000000; stroke-width: 0.8; stroke-linecap: square"/>
    </g>
    <g id="text_14">
     <!-- 0.7 -->
     <g transform="translate(270.537933 226.465782) scale(0.1 -0.1)">
      <use xlink:href="#DejaVuSans-30"/>
      <use xlink:href="#DejaVuSans-2e" x="63.623047"/>
      <use xlink:href="#DejaVuSans-37" x="95.410156"/>
     </g>
    </g>
   </g>
   <g id="xtick_14">
    <g id="line2d_16">
     <path d="M 274.745163 196.410092 
L 277.81311 197.308027 
" style="fill: none; stroke: #000000; stroke-width: 0.8; stroke-linecap: square"/>
    </g>
    <g id="text_15">
     <!-- 0.8 -->
     <g transform="translate(279.764852 216.681041) scale(0.1 -0.1)">
      <use xlink:href="#DejaVuSans-30"/>
      <use xlink:href="#DejaVuSans-2e" x="63.623047"/>
      <use xlink:href="#DejaVuSans-38" x="95.410156"/>
     </g>
    </g>
   </g>
   <g id="text_16">
    <!-- $a / W$ -->
    <g transform="translate(262.559762 275.453053) rotate(-45.742112) scale(0.24 -0.24)">
     <defs>
      <path id="DejaVuSans-Oblique-61" d="M 3438 1997 
L 3047 0 
L 2472 0 
L 2578 531 
Q 2325 219 2001 64 
Q 1678 -91 1281 -91 
Q 834 -91 548 182 
Q 263 456 263 884 
Q 263 1497 752 1853 
Q 1241 2209 2100 2209 
L 2900 2209 
L 2931 2363 
Q 2938 2388 2941 2417 
Q 2944 2447 2944 2509 
Q 2944 2788 2717 2942 
Q 2491 3097 2081 3097 
Q 1800 3097 1504 3025 
Q 1209 2953 897 2809 
L 997 3341 
Q 1322 3463 1633 3523 
Q 1944 3584 2234 3584 
Q 2853 3584 3176 3315 
Q 3500 3047 3500 2534 
Q 3500 2431 3484 2292 
Q 3469 2153 3438 1997 
z
M 2816 1759 
L 2241 1759 
Q 1534 1759 1195 1570 
Q 856 1381 856 984 
Q 856 709 1029 553 
Q 1203 397 1509 397 
Q 1978 397 2328 733 
Q 2678 1069 2791 1631 
L 2816 1759 
z
" transform="scale(0.015625)"/>
      <path id="DejaVuSans-Oblique-57" d="M 616 4666 
L 1228 4666 
L 1453 697 
L 3213 4666 
L 3916 4666 
L 4147 697 
L 5888 4666 
L 6528 4666 
L 4453 0 
L 3659 0 
L 3444 3891 
L 1697 0 
L 903 0 
L 616 4666 
z
" transform="scale(0.015625)"/>
     </defs>
     <use xlink:href="#DejaVuSans-Oblique-61" transform="translate(0 0.09375)"/>
     <use xlink:href="#DejaVuSans-2f" transform="translate(61.279297 0.09375)"/>
     <use xlink:href="#DejaVuSans-Oblique-57" transform="translate(94.970703 0.09375)"/>
    </g>
   </g>
  </g>
  <g id="axis3d_3">
   <g id="line2d_17">
    <path d="M 279.708718 192.66399 
L 284.036869 98.148231 
" style="fill: none; stroke: #000000; stroke-width: 0.8; stroke-linecap: square"/>
   </g>
   <g id="xtick_15">
    <g id="line2d_18">
     <path d="M 278.82786 189.343286 
L 281.888517 190.229248 
" style="fill: none; stroke: #000000; stroke-width: 0.8; stroke-linecap: square"/>
    </g>
    <g id="text_17">
     <!-- −300 -->
     <g transform="translate(284.379 194.639919) scale(0.1 -0.1)">
      <defs>
       <path id="DejaVuSans-2212" d="M 678 2272 
L 4684 2272 
L 4684 1741 
L 678 1741 
L 678 2272 
z
" transform="scale(0.015625)"/>
      </defs>
      <use xlink:href="#DejaVuSans-2212"/>
      <use xlink:href="#DejaVuSans-33" x="83.789062"/>
      <use xlink:href="#DejaVuSans-30" x="147.412109"/>
      <use xlink:href="#DejaVuSans-30" x="211.035156"/>
     </g>
    </g>
   </g>
   <g id="xtick_16">
    <g id="line2d_19">
     <path d="M 279.561345 173.15303 
L 282.64636 174.02636 
" style="fill: none; stroke: #000000; stroke-width: 0.8; stroke-linecap: square"/>
    </g>
    <g id="text_18">
     <!-- −250 -->
     <g transform="translate(285.25749 178.482558) scale(0.1 -0.1)">
      <use xlink:href="#DejaVuSans-2212"/>
      <use xlink:href="#DejaVuSans-32" x="83.789062"/>
      <use xlink:href="#DejaVuSans-35" x="147.412109"/>
      <use xlink:href="#DejaVuSans-30" x="211.035156"/>
     </g>
    </g>
   </g>
   <g id="xtick_17">
    <g id="line2d_20">
     <path d="M 280.306156 156.712771 
L 283.41592 157.572971 
" style="fill: none; stroke: #000000; stroke-width: 0.8; stroke-linecap: square"/>
    </g>
    <g id="text_19">
     <!-- −200 -->
     <g transform="translate(286.149503 162.076486) scale(0.1 -0.1)">
      <use xlink:href="#DejaVuSans-2212"/>
      <use xlink:href="#DejaVuSans-32" x="83.789062"/>
      <use xlink:href="#DejaVuSans-30" x="147.412109"/>
      <use xlink:href="#DejaVuSans-30" x="211.035156"/>
     </g>
    </g>
   </g>
   <g id="xtick_18">
    <g id="line2d_21">
     <path d="M 281.062558 140.016674 
L 284.197469 140.863228 
" style="fill: none; stroke: #000000; stroke-width: 0.8; stroke-linecap: square"/>
    </g>
    <g id="text_20">
     <!-- −150 -->
     <g transform="translate(287.055353 145.415916) scale(0.1 -0.1)">
      <defs>
       <path id="DejaVuSans-31" d="M 794 531 
L 1825 531 
L 1825 4091 
L 703 3866 
L 703 4441 
L 1819 4666 
L 2450 4666 
L 2450 531 
L 3481 531 
L 3481 0 
L 794 0 
L 794 531 
z
" transform="scale(0.015625)"/>
      </defs>
      <use xlink:href="#DejaVuSans-2212"/>
      <use xlink:href="#DejaVuSans-31" x="83.789062"/>
      <use xlink:href="#DejaVuSans-35" x="147.412109"/>
      <use xlink:href="#DejaVuSans-30" x="211.035156"/>
     </g>
    </g>
   </g>
   <g id="xtick_19">
    <g id="line2d_22">
     <path d="M 281.830823 123.05872 
L 284.991291 123.891091 
" style="fill: none; stroke: #000000; stroke-width: 0.8; stroke-linecap: square"/>
    </g>
    <g id="text_21">
     <!-- −100 -->
     <g transform="translate(287.975364 128.49488) scale(0.1 -0.1)">
      <use xlink:href="#DejaVuSans-2212"/>
      <use xlink:href="#DejaVuSans-31" x="83.789062"/>
      <use xlink:href="#DejaVuSans-30" x="147.412109"/>
      <use xlink:href="#DejaVuSans-30" x="211.035156"/>
     </g>
    </g>
   </g>
   <g id="xtick_20">
    <g id="line2d_23">
     <path d="M 282.611232 105.8327 
L 285.797678 106.650332 
" style="fill: none; stroke: #000000; stroke-width: 0.8; stroke-linecap: square"/>
    </g>
    <g id="text_22">
     <!-- −50 -->
     <g transform="translate(292.091122 111.307222) scale(0.1 -0.1)">
      <use xlink:href="#DejaVuSans-2212"/>
      <use xlink:href="#DejaVuSans-35" x="83.789062"/>
      <use xlink:href="#DejaVuSans-30" x="147.412109"/>
     </g>
    </g>
   </g>
  </g>
  <g id="axes_1">
   <g id="Poly3DCollection_1">
    <path d="M 191.89301 171.321887 
L 167.67689 167.122041 
L 186.863848 169.478917 
z
" clip-path="url(#pa85f86cb39)" style="fill: #440154; fill-opacity: 0.9"/>
    <path d="M 186.863848 169.478917 
L 167.67689 167.122041 
L 176.881309 167.30906 
z
" clip-path="url(#pa85f86cb39)" style="fill: #46085c; fill-opacity: 0.9"/>
    <path d="M 148.485973 162.644452 
L 149.506276 161.767646 
L 167.67689 167.122041 
z
" clip-path="url(#pa85f86cb39)" style="fill: #481c6e; fill-opacity: 0.9"/>
    <path d="M 176.881309 167.30906 
L 176.205474 163.278763 
L 186.863848 169.478917 
z
" clip-path="url(#pa85f86cb39)" style="fill: #481769; fill-opacity: 0.9"/>
    <path d="M 163.193418 162.83554 
L 167.67689 167.122041 
L 149.506276 161.767646 
z
" clip-path="url(#pa85f86cb39)" style="fill: #482071; fill-opacity: 0.9"/>
    <path d="M 176.881309 167.30906 
L 167.67689 167.122041 
L 172.461792 162.081668 
z
" clip-path="url(#pa85f86cb39)" style="fill: #481c6e; fill-opacity: 0.9"/>
    <path d="M 203.083216 161.155516 
L 191.89301 171.321887 
L 186.863848 169.478917 
z
" clip-path="url(#pa85f86cb39)" style="fill: #481769; fill-opacity: 0.9"/>
    <path d="M 172.461792 162.081668 
L 167.67689 167.122041 
L 163.193418 162.83554 
z
" clip-path="url(#pa85f86cb39)" style="fill: #482576; fill-opacity: 0.9"/>
    <path d="M 172.461792 162.081668 
L 176.205474 163.278763 
L 176.881309 167.30906 
z
" clip-path="url(#pa85f86cb39)" style="fill: #482878; fill-opacity: 0.9"/>
    <path d="M 146.334977 158.193098 
L 149.506276 161.767646 
L 148.485973 162.644452 
z
" clip-path="url(#pa85f86cb39)" style="fill: #46327e; fill-opacity: 0.9"/>
    <path d="M 218.230592 163.349478 
L 191.89301 171.321887 
L 203.083216 161.155516 
z
" clip-path="url(#pa85f86cb39)" style="fill: #482677; fill-opacity: 0.9"/>
    <path d="M 150.258316 158.795335 
L 163.193418 162.83554 
L 149.506276 161.767646 
z
" clip-path="url(#pa85f86cb39)" style="fill: #463480; fill-opacity: 0.9"/>
    <path d="M 186.863848 169.478917 
L 176.205474 163.278763 
L 195.946982 158.980184 
z
" clip-path="url(#pa85f86cb39)" style="fill: #472f7d; fill-opacity: 0.9"/>
    <path d="M 149.506276 161.767646 
L 146.334977 158.193098 
L 150.258316 158.795335 
z
" clip-path="url(#pa85f86cb39)" style="fill: #433e85; fill-opacity: 0.9"/>
    <path d="M 195.946982 158.980184 
L 203.083216 161.155516 
L 186.863848 169.478917 
z
" clip-path="url(#pa85f86cb39)" style="fill: #453581; fill-opacity: 0.9"/>
    <path d="M 135.673362 153.644001 
L 146.334977 158.193098 
L 148.485973 162.644452 
z
" clip-path="url(#pa85f86cb39)" style="fill: #3f4889; fill-opacity: 0.9"/>
    <path d="M 163.193418 162.83554 
L 150.258316 158.795335 
L 149.85419 156.559634 
z
" clip-path="url(#pa85f86cb39)" style="fill: #404688; fill-opacity: 0.9"/>
    <path d="M 190.433218 157.618789 
L 176.205474 163.278763 
L 172.461792 162.081668 
z
" clip-path="url(#pa85f86cb39)" style="fill: #414487; fill-opacity: 0.9"/>
    <path d="M 218.230592 163.349478 
L 203.083216 161.155516 
L 212.133475 158.802825 
z
" clip-path="url(#pa85f86cb39)" style="fill: #414487; fill-opacity: 0.9"/>
    <path d="M 212.133475 158.802825 
L 221.330557 159.855109 
L 218.230592 163.349478 
z
" clip-path="url(#pa85f86cb39)" style="fill: #404688; fill-opacity: 0.9"/>
    <path d="M 148.640992 156.932636 
L 150.258316 158.795335 
L 146.334977 158.193098 
z
" clip-path="url(#pa85f86cb39)" style="fill: #3d4d8a; fill-opacity: 0.9"/>
    <path d="M 172.461792 162.081668 
L 163.193418 162.83554 
L 159.834182 155.420194 
z
" clip-path="url(#pa85f86cb39)" style="fill: #3f4889; fill-opacity: 0.9"/>
    <path d="M 176.205474 163.278763 
L 190.433218 157.618789 
L 195.946982 158.980184 
z
" clip-path="url(#pa85f86cb39)" style="fill: #3d4d8a; fill-opacity: 0.9"/>
    <path d="M 148.640992 156.932636 
L 149.85419 156.559634 
L 150.258316 158.795335 
z
" clip-path="url(#pa85f86cb39)" style="fill: #3a538b; fill-opacity: 0.9"/>
    <path d="M 221.330557 159.855109 
L 240.999688 150.626722 
L 218.230592 163.349478 
z
" clip-path="url(#pa85f86cb39)" style="fill: #3b528b; fill-opacity: 0.9"/>
    <path d="M 149.85419 156.559634 
L 159.834182 155.420194 
L 163.193418 162.83554 
z
" clip-path="url(#pa85f86cb39)" style="fill: #3a538b; fill-opacity: 0.9"/>
    <path d="M 212.133475 158.802825 
L 219.983342 156.424956 
L 221.330557 159.855109 
z
" clip-path="url(#pa85f86cb39)" style="fill: #3a548c; fill-opacity: 0.9"/>
    <path d="M 146.334977 158.193098 
L 135.673362 153.644001 
L 148.640992 156.932636 
z
" clip-path="url(#pa85f86cb39)" style="fill: #375a8c; fill-opacity: 0.9"/>
    <path d="M 127.071334 149.788967 
L 135.673362 153.644001 
L 148.485973 162.644452 
z
" clip-path="url(#pa85f86cb39)" style="fill: #355e8d; fill-opacity: 0.9"/>
    <path d="M 203.083216 161.155516 
L 208.501031 154.953437 
L 212.133475 158.802825 
z
" clip-path="url(#pa85f86cb39)" style="fill: #38588c; fill-opacity: 0.9"/>
    <path d="M 195.946982 158.980184 
L 208.501031 154.953437 
L 203.083216 161.155516 
z
" clip-path="url(#pa85f86cb39)" style="fill: #38598c; fill-opacity: 0.9"/>
    <path d="M 148.283651 155.405528 
L 149.85419 156.559634 
L 148.640992 156.932636 
z
" clip-path="url(#pa85f86cb39)" style="fill: #355e8d; fill-opacity: 0.9"/>
    <path d="M 240.999688 150.626722 
L 221.330557 159.855109 
L 219.983342 156.424956 
z
" clip-path="url(#pa85f86cb39)" style="fill: #34608d; fill-opacity: 0.9"/>
    <path d="M 172.461792 162.081668 
L 186.987189 155.164256 
L 190.433218 157.618789 
z
" clip-path="url(#pa85f86cb39)" style="fill: #375b8d; fill-opacity: 0.9"/>
    <path d="M 135.673362 153.644001 
L 148.283651 155.405528 
L 148.640992 156.932636 
z
" clip-path="url(#pa85f86cb39)" style="fill: #33638d; fill-opacity: 0.9"/>
    <path d="M 212.773775 155.026705 
L 219.983342 156.424956 
L 212.133475 158.802825 
z
" clip-path="url(#pa85f86cb39)" style="fill: #34608d; fill-opacity: 0.9"/>
    <path d="M 149.85419 156.559634 
L 148.283651 155.405528 
L 159.834182 155.420194 
z
" clip-path="url(#pa85f86cb39)" style="fill: #32658e; fill-opacity: 0.9"/>
    <path d="M 208.501031 154.953437 
L 212.773775 155.026705 
L 212.133475 158.802825 
z
" clip-path="url(#pa85f86cb39)" style="fill: #32658e; fill-opacity: 0.9"/>
    <path d="M 195.946982 158.980184 
L 190.433218 157.618789 
L 197.030058 155.018953 
z
" clip-path="url(#pa85f86cb39)" style="fill: #33638d; fill-opacity: 0.9"/>
    <path d="M 159.834182 155.420194 
L 168.243298 154.067157 
L 172.461792 162.081668 
z
" clip-path="url(#pa85f86cb39)" style="fill: #33638d; fill-opacity: 0.9"/>
    <path d="M 168.243298 154.067157 
L 186.987189 155.164256 
L 172.461792 162.081668 
z
" clip-path="url(#pa85f86cb39)" style="fill: #31668e; fill-opacity: 0.9"/>
    <path d="M 197.030058 155.018953 
L 208.501031 154.953437 
L 195.946982 158.980184 
z
" clip-path="url(#pa85f86cb39)" style="fill: #31688e; fill-opacity: 0.9"/>
    <path d="M 219.983342 156.424956 
L 225.810404 151.614013 
L 240.999688 150.626722 
z
" clip-path="url(#pa85f86cb39)" style="fill: #2d718e; fill-opacity: 0.9"/>
    <path d="M 219.983342 156.424956 
L 212.773775 155.026705 
L 219.533869 151.895626 
z
" clip-path="url(#pa85f86cb39)" style="fill: #2e6e8e; fill-opacity: 0.9"/>
    <path d="M 219.533869 151.895626 
L 225.810404 151.614013 
L 219.983342 156.424956 
z
" clip-path="url(#pa85f86cb39)" style="fill: #2c738e; fill-opacity: 0.9"/>
    <path d="M 225.810404 151.614013 
L 240.612152 149.93021 
L 240.999688 150.626722 
z
" clip-path="url(#pa85f86cb39)" style="fill: #29798e; fill-opacity: 0.9"/>
    <path d="M 190.433218 157.618789 
L 186.987189 155.164256 
L 197.030058 155.018953 
z
" clip-path="url(#pa85f86cb39)" style="fill: #2e6e8e; fill-opacity: 0.9"/>
    <path d="M 135.673362 153.644001 
L 142.873767 151.179973 
L 148.283651 155.405528 
z
" clip-path="url(#pa85f86cb39)" style="fill: #2c738e; fill-opacity: 0.9"/>
    <path d="M 240.612152 149.93021 
L 243.805631 147.322934 
L 240.999688 150.626722 
z
" clip-path="url(#pa85f86cb39)" style="fill: #287d8e; fill-opacity: 0.9"/>
    <path d="M 147.861096 152.215506 
L 159.834182 155.420194 
L 148.283651 155.405528 
z
" clip-path="url(#pa85f86cb39)" style="fill: #2c728e; fill-opacity: 0.9"/>
    <path d="M 212.773775 155.026705 
L 208.501031 154.953437 
L 208.522643 152.681191 
z
" clip-path="url(#pa85f86cb39)" style="fill: #2c738e; fill-opacity: 0.9"/>
    <path d="M 240.496059 148.164573 
L 240.612152 149.93021 
L 225.810404 151.614013 
z
" clip-path="url(#pa85f86cb39)" style="fill: #277e8e; fill-opacity: 0.9"/>
    <path d="M 200.016755 154.159506 
L 208.501031 154.953437 
L 197.030058 155.018953 
z
" clip-path="url(#pa85f86cb39)" style="fill: #2c738e; fill-opacity: 0.9"/>
    <path d="M 240.496059 148.164573 
L 243.805631 147.322934 
L 240.612152 149.93021 
z
" clip-path="url(#pa85f86cb39)" style="fill: #26828e; fill-opacity: 0.9"/>
    <path d="M 212.773775 155.026705 
L 208.522643 152.681191 
L 219.533869 151.895626 
z
" clip-path="url(#pa85f86cb39)" style="fill: #29798e; fill-opacity: 0.9"/>
    <path d="M 208.522643 152.681191 
L 208.501031 154.953437 
L 200.016755 154.159506 
z
" clip-path="url(#pa85f86cb39)" style="fill: #2a788e; fill-opacity: 0.9"/>
    <path d="M 135.673362 153.644001 
L 127.071334 149.788967 
L 135.700207 150.18762 
z
" clip-path="url(#pa85f86cb39)" style="fill: #277f8e; fill-opacity: 0.9"/>
    <path d="M 225.810404 151.614013 
L 231.356995 148.590789 
L 240.496059 148.164573 
z
" clip-path="url(#pa85f86cb39)" style="fill: #25838e; fill-opacity: 0.9"/>
    <path d="M 148.283651 155.405528 
L 142.873767 151.179973 
L 147.861096 152.215506 
z
" clip-path="url(#pa85f86cb39)" style="fill: #287d8e; fill-opacity: 0.9"/>
    <path d="M 159.834182 155.420194 
L 147.861096 152.215506 
L 168.243298 154.067157 
z
" clip-path="url(#pa85f86cb39)" style="fill: #297b8e; fill-opacity: 0.9"/>
    <path d="M 219.533869 151.895626 
L 221.0374 150.09765 
L 225.810404 151.614013 
z
" clip-path="url(#pa85f86cb39)" style="fill: #26828e; fill-opacity: 0.9"/>
    <path d="M 135.700207 150.18762 
L 142.873767 151.179973 
L 135.673362 153.644001 
z
" clip-path="url(#pa85f86cb39)" style="fill: #26818e; fill-opacity: 0.9"/>
    <path d="M 241.441392 145.430379 
L 243.805631 147.322934 
L 240.496059 148.164573 
z
" clip-path="url(#pa85f86cb39)" style="fill: #228b8d; fill-opacity: 0.9"/>
    <path d="M 262.550384 136.164593 
L 240.999688 150.626722 
L 243.805631 147.322934 
z
" clip-path="url(#pa85f86cb39)" style="fill: #21918c; fill-opacity: 0.9"/>
    <path d="M 197.030058 155.018953 
L 186.987189 155.164256 
L 191.136156 152.533148 
z
" clip-path="url(#pa85f86cb39)" style="fill: #287d8e; fill-opacity: 0.9"/>
    <path d="M 225.810404 151.614013 
L 221.0374 150.09765 
L 231.356995 148.590789 
z
" clip-path="url(#pa85f86cb39)" style="fill: #25858e; fill-opacity: 0.9"/>
    <path d="M 197.030058 155.018953 
L 191.136156 152.533148 
L 200.016755 154.159506 
z
" clip-path="url(#pa85f86cb39)" style="fill: #277e8e; fill-opacity: 0.9"/>
    <path d="M 219.533869 151.895626 
L 208.522643 152.681191 
L 221.0374 150.09765 
z
" clip-path="url(#pa85f86cb39)" style="fill: #25838e; fill-opacity: 0.9"/>
    <path d="M 240.496059 148.164573 
L 231.356995 148.590789 
L 241.441392 145.430379 
z
" clip-path="url(#pa85f86cb39)" style="fill: #228c8d; fill-opacity: 0.9"/>
    <path d="M 179.647317 152.347709 
L 186.987189 155.164256 
L 168.243298 154.067157 
z
" clip-path="url(#pa85f86cb39)" style="fill: #26828e; fill-opacity: 0.9"/>
    <path d="M 206.490332 150.161443 
L 208.522643 152.681191 
L 200.016755 154.159506 
z
" clip-path="url(#pa85f86cb39)" style="fill: #24878e; fill-opacity: 0.9"/>
    <path d="M 247.274423 141.826976 
L 243.805631 147.322934 
L 241.441392 145.430379 
z
" clip-path="url(#pa85f86cb39)" style="fill: #1f968b; fill-opacity: 0.9"/>
    <path d="M 167.170718 152.012834 
L 168.243298 154.067157 
L 147.861096 152.215506 
z
" clip-path="url(#pa85f86cb39)" style="fill: #23888e; fill-opacity: 0.9"/>
    <path d="M 191.136156 152.533148 
L 186.987189 155.164256 
L 179.647317 152.347709 
z
" clip-path="url(#pa85f86cb39)" style="fill: #24878e; fill-opacity: 0.9"/>
    <path d="M 221.0374 150.09765 
L 208.522643 152.681191 
L 218.404859 148.625617 
z
" clip-path="url(#pa85f86cb39)" style="fill: #228d8d; fill-opacity: 0.9"/>
    <path d="M 218.404859 148.625617 
L 231.356995 148.590789 
L 221.0374 150.09765 
z
" clip-path="url(#pa85f86cb39)" style="fill: #21918c; fill-opacity: 0.9"/>
    <path d="M 142.873767 151.179973 
L 143.508746 150.249484 
L 147.861096 152.215506 
z
" clip-path="url(#pa85f86cb39)" style="fill: #228d8d; fill-opacity: 0.9"/>
    <path d="M 135.700207 150.18762 
L 127.071334 149.788967 
L 120.512231 146.063751 
z
" clip-path="url(#pa85f86cb39)" style="fill: #20928c; fill-opacity: 0.9"/>
    <path d="M 200.016755 154.159506 
L 191.136156 152.533148 
L 206.490332 150.161443 
z
" clip-path="url(#pa85f86cb39)" style="fill: #228b8d; fill-opacity: 0.9"/>
    <path d="M 243.805631 147.322934 
L 247.274423 141.826976 
L 262.550384 136.164593 
z
" clip-path="url(#pa85f86cb39)" style="fill: #1fa188; fill-opacity: 0.9"/>
    <path d="M 143.508746 150.249484 
L 142.873767 151.179973 
L 135.700207 150.18762 
z
" clip-path="url(#pa85f86cb39)" style="fill: #21908d; fill-opacity: 0.9"/>
    <path d="M 168.243298 154.067157 
L 167.170718 152.012834 
L 179.647317 152.347709 
z
" clip-path="url(#pa85f86cb39)" style="fill: #228c8d; fill-opacity: 0.9"/>
    <path d="M 218.404859 148.625617 
L 208.522643 152.681191 
L 211.695493 149.36979 
z
" clip-path="url(#pa85f86cb39)" style="fill: #20938c; fill-opacity: 0.9"/>
    <path d="M 241.441392 145.430379 
L 231.356995 148.590789 
L 235.994853 143.156571 
z
" clip-path="url(#pa85f86cb39)" style="fill: #1e9d89; fill-opacity: 0.9"/>
    <path d="M 211.695493 149.36979 
L 208.522643 152.681191 
L 206.490332 150.161443 
z
" clip-path="url(#pa85f86cb39)" style="fill: #20938c; fill-opacity: 0.9"/>
    <path d="M 137.164322 148.318526 
L 143.508746 150.249484 
L 135.700207 150.18762 
z
" clip-path="url(#pa85f86cb39)" style="fill: #1f988b; fill-opacity: 0.9"/>
    <path d="M 160.082145 150.402858 
L 147.861096 152.215506 
L 143.508746 150.249484 
z
" clip-path="url(#pa85f86cb39)" style="fill: #1f958b; fill-opacity: 0.9"/>
    <path d="M 160.082145 150.402858 
L 167.170718 152.012834 
L 147.861096 152.215506 
z
" clip-path="url(#pa85f86cb39)" style="fill: #1f948c; fill-opacity: 0.9"/>
    <path d="M 218.404859 148.625617 
L 235.994853 143.156571 
L 231.356995 148.590789 
z
" clip-path="url(#pa85f86cb39)" style="fill: #1f9f88; fill-opacity: 0.9"/>
    <path d="M 120.512231 146.063751 
L 137.164322 148.318526 
L 135.700207 150.18762 
z
" clip-path="url(#pa85f86cb39)" style="fill: #1e9c89; fill-opacity: 0.9"/>
    <path d="M 235.994853 143.156571 
L 247.274423 141.826976 
L 241.441392 145.430379 
z
" clip-path="url(#pa85f86cb39)" style="fill: #21a685; fill-opacity: 0.9"/>
    <path d="M 191.136156 152.533148 
L 200.277094 149.750388 
L 206.490332 150.161443 
z
" clip-path="url(#pa85f86cb39)" style="fill: #1e9b8a; fill-opacity: 0.9"/>
    <path d="M 179.647317 152.347709 
L 188.713936 149.843553 
L 191.136156 152.533148 
z
" clip-path="url(#pa85f86cb39)" style="fill: #1e9b8a; fill-opacity: 0.9"/>
    <path d="M 143.508746 150.249484 
L 137.164322 148.318526 
L 160.082145 150.402858 
z
" clip-path="url(#pa85f86cb39)" style="fill: #1fa088; fill-opacity: 0.9"/>
    <path d="M 177.136556 150.279966 
L 179.647317 152.347709 
L 167.170718 152.012834 
z
" clip-path="url(#pa85f86cb39)" style="fill: #1e9c89; fill-opacity: 0.9"/>
    <path d="M 160.082145 150.402858 
L 164.509071 151.085069 
L 167.170718 152.012834 
z
" clip-path="url(#pa85f86cb39)" style="fill: #1e9d89; fill-opacity: 0.9"/>
    <path d="M 218.404859 148.625617 
L 211.695493 149.36979 
L 210.914512 148.222242 
z
" clip-path="url(#pa85f86cb39)" style="fill: #1fa287; fill-opacity: 0.9"/>
    <path d="M 210.914512 148.222242 
L 211.695493 149.36979 
L 206.490332 150.161443 
z
" clip-path="url(#pa85f86cb39)" style="fill: #1fa287; fill-opacity: 0.9"/>
    <path d="M 132.296404 147.030402 
L 137.164322 148.318526 
L 120.512231 146.063751 
z
" clip-path="url(#pa85f86cb39)" style="fill: #21a685; fill-opacity: 0.9"/>
    <path d="M 256.763449 135.163608 
L 262.550384 136.164593 
L 247.274423 141.826976 
z
" clip-path="url(#pa85f86cb39)" style="fill: #3aba76; fill-opacity: 0.9"/>
    <path d="M 167.170718 152.012834 
L 164.509071 151.085069 
L 177.136556 150.279966 
z
" clip-path="url(#pa85f86cb39)" style="fill: #1fa088; fill-opacity: 0.9"/>
    <path d="M 188.713936 149.843553 
L 200.277094 149.750388 
L 191.136156 152.533148 
z
" clip-path="url(#pa85f86cb39)" style="fill: #1fa187; fill-opacity: 0.9"/>
    <path d="M 120.512231 146.063751 
L 118.337131 144.081399 
L 132.296404 147.030402 
z
" clip-path="url(#pa85f86cb39)" style="fill: #26ad81; fill-opacity: 0.9"/>
    <path d="M 206.490332 150.161443 
L 200.277094 149.750388 
L 210.914512 148.222242 
z
" clip-path="url(#pa85f86cb39)" style="fill: #21a585; fill-opacity: 0.9"/>
    <path d="M 233.611373 143.216077 
L 235.994853 143.156571 
L 218.404859 148.625617 
z
" clip-path="url(#pa85f86cb39)" style="fill: #29af7f; fill-opacity: 0.9"/>
    <path d="M 127.071334 149.788967 
L 100.074215 136.849122 
L 120.512231 146.063751 
z
" clip-path="url(#pa85f86cb39)" style="fill: #2ab07f; fill-opacity: 0.9"/>
    <path d="M 167.792933 150.113599 
L 164.509071 151.085069 
L 160.082145 150.402858 
z
" clip-path="url(#pa85f86cb39)" style="fill: #20a486; fill-opacity: 0.9"/>
    <path d="M 218.404859 148.625617 
L 210.914512 148.222242 
L 233.611373 143.216077 
z
" clip-path="url(#pa85f86cb39)" style="fill: #26ad81; fill-opacity: 0.9"/>
    <path d="M 247.274423 141.826976 
L 235.994853 143.156571 
L 256.763449 135.163608 
z
" clip-path="url(#pa85f86cb39)" style="fill: #3aba76; fill-opacity: 0.9"/>
    <path d="M 188.713936 149.843553 
L 179.647317 152.347709 
L 177.136556 150.279966 
z
" clip-path="url(#pa85f86cb39)" style="fill: #21a585; fill-opacity: 0.9"/>
    <path d="M 177.136556 150.279966 
L 164.509071 151.085069 
L 167.792933 150.113599 
z
" clip-path="url(#pa85f86cb39)" style="fill: #22a884; fill-opacity: 0.9"/>
    <path d="M 143.032527 147.033796 
L 160.082145 150.402858 
L 137.164322 148.318526 
z
" clip-path="url(#pa85f86cb39)" style="fill: #26ad81; fill-opacity: 0.9"/>
    <path d="M 143.032527 147.033796 
L 137.164322 148.318526 
L 132.296404 147.030402 
z
" clip-path="url(#pa85f86cb39)" style="fill: #29af7f; fill-opacity: 0.9"/>
    <path d="M 162.818159 149.498346 
L 167.792933 150.113599 
L 160.082145 150.402858 
z
" clip-path="url(#pa85f86cb39)" style="fill: #25ac82; fill-opacity: 0.9"/>
    <path d="M 132.296404 147.030402 
L 118.337131 144.081399 
L 128.174045 145.006543 
z
" clip-path="url(#pa85f86cb39)" style="fill: #31b57b; fill-opacity: 0.9"/>
    <path d="M 210.914512 148.222242 
L 200.277094 149.750388 
L 199.31577 148.672613 
z
" clip-path="url(#pa85f86cb39)" style="fill: #29af7f; fill-opacity: 0.9"/>
    <path d="M 167.792933 150.113599 
L 173.518566 149.738702 
L 177.136556 150.279966 
z
" clip-path="url(#pa85f86cb39)" style="fill: #29af7f; fill-opacity: 0.9"/>
    <path d="M 200.277094 149.750388 
L 188.713936 149.843553 
L 199.31577 148.672613 
z
" clip-path="url(#pa85f86cb39)" style="fill: #2ab07f; fill-opacity: 0.9"/>
    <path d="M 160.082145 150.402858 
L 154.922714 148.178294 
L 162.818159 149.498346 
z
" clip-path="url(#pa85f86cb39)" style="fill: #2cb17e; fill-opacity: 0.9"/>
    <path d="M 173.518566 149.738702 
L 188.713936 149.843553 
L 177.136556 150.279966 
z
" clip-path="url(#pa85f86cb39)" style="fill: #2ab07f; fill-opacity: 0.9"/>
    <path d="M 132.296404 147.030402 
L 128.174045 145.006543 
L 143.032527 147.033796 
z
" clip-path="url(#pa85f86cb39)" style="fill: #35b779; fill-opacity: 0.9"/>
    <path d="M 233.611373 143.216077 
L 210.914512 148.222242 
L 225.420121 144.613639 
z
" clip-path="url(#pa85f86cb39)" style="fill: #3aba76; fill-opacity: 0.9"/>
    <path d="M 120.512231 146.063751 
L 100.074215 136.849122 
L 118.337131 144.081399 
z
" clip-path="url(#pa85f86cb39)" style="fill: #44bf70; fill-opacity: 0.9"/>
    <path d="M 149.95052 147.738421 
L 160.082145 150.402858 
L 143.032527 147.033796 
z
" clip-path="url(#pa85f86cb39)" style="fill: #31b57b; fill-opacity: 0.9"/>
    <path d="M 233.611373 143.216077 
L 241.972402 140.096592 
L 235.994853 143.156571 
z
" clip-path="url(#pa85f86cb39)" style="fill: #46c06f; fill-opacity: 0.9"/>
    <path d="M 160.082145 150.402858 
L 149.95052 147.738421 
L 154.922714 148.178294 
z
" clip-path="url(#pa85f86cb39)" style="fill: #31b57b; fill-opacity: 0.9"/>
    <path d="M 256.763449 135.163608 
L 235.994853 143.156571 
L 254.088309 136.004085 
z
" clip-path="url(#pa85f86cb39)" style="fill: #5ac864; fill-opacity: 0.9"/>
    <path d="M 166.179677 148.959306 
L 167.792933 150.113599 
L 162.818159 149.498346 
z
" clip-path="url(#pa85f86cb39)" style="fill: #2fb47c; fill-opacity: 0.9"/>
    <path d="M 167.792933 150.113599 
L 166.179677 148.959306 
L 173.518566 149.738702 
z
" clip-path="url(#pa85f86cb39)" style="fill: #2fb47c; fill-opacity: 0.9"/>
    <path d="M 199.31577 148.672613 
L 213.401669 146.769496 
L 210.914512 148.222242 
z
" clip-path="url(#pa85f86cb39)" style="fill: #37b878; fill-opacity: 0.9"/>
    <path d="M 210.914512 148.222242 
L 213.401669 146.769496 
L 225.420121 144.613639 
z
" clip-path="url(#pa85f86cb39)" style="fill: #3dbc74; fill-opacity: 0.9"/>
    <path d="M 235.994853 143.156571 
L 250.542934 137.203418 
L 254.088309 136.004085 
z
" clip-path="url(#pa85f86cb39)" style="fill: #5ec962; fill-opacity: 0.9"/>
    <path d="M 162.818159 149.498346 
L 154.922714 148.178294 
L 157.728914 148.433749 
z
" clip-path="url(#pa85f86cb39)" style="fill: #38b977; fill-opacity: 0.9"/>
    <path d="M 241.972402 140.096592 
L 250.542934 137.203418 
L 235.994853 143.156571 
z
" clip-path="url(#pa85f86cb39)" style="fill: #5ac864; fill-opacity: 0.9"/>
    <path d="M 162.818159 149.498346 
L 157.728914 148.433749 
L 166.179677 148.959306 
z
" clip-path="url(#pa85f86cb39)" style="fill: #38b977; fill-opacity: 0.9"/>
    <path d="M 113.42065 140.307305 
L 128.174045 145.006543 
L 118.337131 144.081399 
z
" clip-path="url(#pa85f86cb39)" style="fill: #50c46a; fill-opacity: 0.9"/>
    <path d="M 225.420121 144.613639 
L 235.333678 141.991643 
L 233.611373 143.216077 
z
" clip-path="url(#pa85f86cb39)" style="fill: #50c46a; fill-opacity: 0.9"/>
    <path d="M 128.174045 145.006543 
L 138.169453 145.676883 
L 143.032527 147.033796 
z
" clip-path="url(#pa85f86cb39)" style="fill: #46c06f; fill-opacity: 0.9"/>
    <path d="M 188.713936 149.843553 
L 173.518566 149.738702 
L 187.291654 148.596486 
z
" clip-path="url(#pa85f86cb39)" style="fill: #3aba76; fill-opacity: 0.9"/>
    <path d="M 233.611373 143.216077 
L 235.333678 141.991643 
L 241.972402 140.096592 
z
" clip-path="url(#pa85f86cb39)" style="fill: #5ac864; fill-opacity: 0.9"/>
    <path d="M 199.31577 148.672613 
L 188.713936 149.843553 
L 187.291654 148.596486 
z
" clip-path="url(#pa85f86cb39)" style="fill: #3dbc74; fill-opacity: 0.9"/>
    <path d="M 128.127839 144.161797 
L 138.169453 145.676883 
L 128.174045 145.006543 
z
" clip-path="url(#pa85f86cb39)" style="fill: #4ec36b; fill-opacity: 0.9"/>
    <path d="M 145.001817 146.045978 
L 149.95052 147.738421 
L 143.032527 147.033796 
z
" clip-path="url(#pa85f86cb39)" style="fill: #4cc26c; fill-opacity: 0.9"/>
    <path d="M 128.174045 145.006543 
L 113.42065 140.307305 
L 128.127839 144.161797 
z
" clip-path="url(#pa85f86cb39)" style="fill: #5ec962; fill-opacity: 0.9"/>
    <path d="M 145.001817 146.045978 
L 154.922714 148.178294 
L 149.95052 147.738421 
z
" clip-path="url(#pa85f86cb39)" style="fill: #4cc26c; fill-opacity: 0.9"/>
    <path d="M 162.794753 147.946765 
L 157.728914 148.433749 
L 154.922714 148.178294 
z
" clip-path="url(#pa85f86cb39)" style="fill: #48c16e; fill-opacity: 0.9"/>
    <path d="M 162.794753 147.946765 
L 166.179677 148.959306 
L 157.728914 148.433749 
z
" clip-path="url(#pa85f86cb39)" style="fill: #48c16e; fill-opacity: 0.9"/>
    <path d="M 179.97281 148.433376 
L 173.518566 149.738702 
L 166.179677 148.959306 
z
" clip-path="url(#pa85f86cb39)" style="fill: #46c06f; fill-opacity: 0.9"/>
    <path d="M 199.31577 148.672613 
L 193.253909 148.324197 
L 213.401669 146.769496 
z
" clip-path="url(#pa85f86cb39)" style="fill: #4cc26c; fill-opacity: 0.9"/>
    <path d="M 143.032527 147.033796 
L 138.169453 145.676883 
L 145.001817 146.045978 
z
" clip-path="url(#pa85f86cb39)" style="fill: #52c569; fill-opacity: 0.9"/>
    <path d="M 229.207685 143.44366 
L 235.333678 141.991643 
L 225.420121 144.613639 
z
" clip-path="url(#pa85f86cb39)" style="fill: #60ca60; fill-opacity: 0.9"/>
    <path d="M 225.420121 144.613639 
L 213.401669 146.769496 
L 223.647964 144.613576 
z
" clip-path="url(#pa85f86cb39)" style="fill: #58c765; fill-opacity: 0.9"/>
    <path d="M 131.694629 144.328666 
L 138.169453 145.676883 
L 128.127839 144.161797 
z
" clip-path="url(#pa85f86cb39)" style="fill: #5ac864; fill-opacity: 0.9"/>
    <path d="M 118.337131 144.081399 
L 104.853648 138.032898 
L 113.42065 140.307305 
z
" clip-path="url(#pa85f86cb39)" style="fill: #6ece58; fill-opacity: 0.9"/>
    <path d="M 100.074215 136.849122 
L 104.853648 138.032898 
L 118.337131 144.081399 
z
" clip-path="url(#pa85f86cb39)" style="fill: #77d153; fill-opacity: 0.9"/>
    <path d="M 254.088309 136.004085 
L 250.542934 137.203418 
L 242.20697 139.963874 
z
" clip-path="url(#pa85f86cb39)" style="fill: #84d44b; fill-opacity: 0.9"/>
    <path d="M 225.420121 144.613639 
L 223.647964 144.613576 
L 229.207685 143.44366 
z
" clip-path="url(#pa85f86cb39)" style="fill: #63cb5f; fill-opacity: 0.9"/>
    <path d="M 162.794753 147.946765 
L 154.922714 148.178294 
L 145.001817 146.045978 
z
" clip-path="url(#pa85f86cb39)" style="fill: #56c667; fill-opacity: 0.9"/>
    <path d="M 124.662825 142.600427 
L 131.694629 144.328666 
L 128.127839 144.161797 
z
" clip-path="url(#pa85f86cb39)" style="fill: #67cc5c; fill-opacity: 0.9"/>
    <path d="M 187.291654 148.596486 
L 193.253909 148.324197 
L 199.31577 148.672613 
z
" clip-path="url(#pa85f86cb39)" style="fill: #52c569; fill-opacity: 0.9"/>
    <path d="M 187.291654 148.596486 
L 173.518566 149.738702 
L 179.97281 148.433376 
z
" clip-path="url(#pa85f86cb39)" style="fill: #50c46a; fill-opacity: 0.9"/>
    <path d="M 138.169453 145.676883 
L 131.694629 144.328666 
L 141.792961 145.551119 
z
" clip-path="url(#pa85f86cb39)" style="fill: #60ca60; fill-opacity: 0.9"/>
    <path d="M 242.20697 139.963874 
L 250.542934 137.203418 
L 241.972402 140.096592 
z
" clip-path="url(#pa85f86cb39)" style="fill: #81d34d; fill-opacity: 0.9"/>
    <path d="M 242.20697 139.963874 
L 241.972402 140.096592 
L 235.333678 141.991643 
z
" clip-path="url(#pa85f86cb39)" style="fill: #7ad151; fill-opacity: 0.9"/>
    <path d="M 128.127839 144.161797 
L 113.42065 140.307305 
L 124.662825 142.600427 
z
" clip-path="url(#pa85f86cb39)" style="fill: #73d056; fill-opacity: 0.9"/>
    <path d="M 138.169453 145.676883 
L 141.792961 145.551119 
L 145.001817 146.045978 
z
" clip-path="url(#pa85f86cb39)" style="fill: #63cb5f; fill-opacity: 0.9"/>
    <path d="M 166.179677 148.959306 
L 162.794753 147.946765 
L 179.97281 148.433376 
z
" clip-path="url(#pa85f86cb39)" style="fill: #56c667; fill-opacity: 0.9"/>
    <path d="M 240.104783 140.609882 
L 235.333678 141.991643 
L 229.207685 143.44366 
z
" clip-path="url(#pa85f86cb39)" style="fill: #7ad151; fill-opacity: 0.9"/>
    <path d="M 228.907966 143.485078 
L 229.207685 143.44366 
L 223.647964 144.613576 
z
" clip-path="url(#pa85f86cb39)" style="fill: #70cf57; fill-opacity: 0.9"/>
    <path d="M 223.647964 144.613576 
L 213.401669 146.769496 
L 214.746547 146.163222 
z
" clip-path="url(#pa85f86cb39)" style="fill: #69cd5b; fill-opacity: 0.9"/>
    <path d="M 213.401669 146.769496 
L 193.253909 148.324197 
L 214.746547 146.163222 
z
" clip-path="url(#pa85f86cb39)" style="fill: #63cb5f; fill-opacity: 0.9"/>
    <path d="M 193.253909 148.324197 
L 187.291654 148.596486 
L 187.85424 148.497668 
z
" clip-path="url(#pa85f86cb39)" style="fill: #60ca60; fill-opacity: 0.9"/>
    <path d="M 240.104783 140.609882 
L 229.207685 143.44366 
L 228.907966 143.485078 
z
" clip-path="url(#pa85f86cb39)" style="fill: #7cd250; fill-opacity: 0.9"/>
    <path d="M 235.333678 141.991643 
L 240.104783 140.609882 
L 242.20697 139.963874 
z
" clip-path="url(#pa85f86cb39)" style="fill: #86d549; fill-opacity: 0.9"/>
    <path d="M 187.85424 148.497668 
L 187.291654 148.596486 
L 179.97281 148.433376 
z
" clip-path="url(#pa85f86cb39)" style="fill: #63cb5f; fill-opacity: 0.9"/>
    <path d="M 141.792961 145.551119 
L 145.796055 145.636539 
L 145.001817 146.045978 
z
" clip-path="url(#pa85f86cb39)" style="fill: #70cf57; fill-opacity: 0.9"/>
    <path d="M 131.694629 144.328666 
L 124.662825 142.600427 
L 125.887166 142.073003 
z
" clip-path="url(#pa85f86cb39)" style="fill: #7fd34e; fill-opacity: 0.9"/>
    <path d="M 145.001817 146.045978 
L 148.056595 145.791355 
L 162.794753 147.946765 
z
" clip-path="url(#pa85f86cb39)" style="fill: #6ece58; fill-opacity: 0.9"/>
    <path d="M 141.792961 145.551119 
L 131.694629 144.328666 
L 129.579464 142.593447 
z
" clip-path="url(#pa85f86cb39)" style="fill: #7cd250; fill-opacity: 0.9"/>
    <path d="M 125.887166 142.073003 
L 124.662825 142.600427 
L 113.42065 140.307305 
z
" clip-path="url(#pa85f86cb39)" style="fill: #8bd646; fill-opacity: 0.9"/>
    <path d="M 101.832532 137.272525 
L 104.853648 138.032898 
L 100.074215 136.849122 
z
" clip-path="url(#pa85f86cb39)" style="fill: #a5db36; fill-opacity: 0.9"/>
    <path d="M 145.001817 146.045978 
L 145.796055 145.636539 
L 148.056595 145.791355 
z
" clip-path="url(#pa85f86cb39)" style="fill: #7ad151; fill-opacity: 0.9"/>
    <path d="M 187.85424 148.497668 
L 192.930619 148.111534 
L 193.253909 148.324197 
z
" clip-path="url(#pa85f86cb39)" style="fill: #6ece58; fill-opacity: 0.9"/>
    <path d="M 228.907966 143.485078 
L 223.647964 144.613576 
L 225.762382 144.600261 
z
" clip-path="url(#pa85f86cb39)" style="fill: #86d549; fill-opacity: 0.9"/>
    <path d="M 129.579464 142.593447 
L 131.694629 144.328666 
L 125.887166 142.073003 
z
" clip-path="url(#pa85f86cb39)" style="fill: #8ed645; fill-opacity: 0.9"/>
    <path d="M 254.088309 136.004085 
L 215.166169 148.776349 
L 256.763449 135.163608 
z
" clip-path="url(#pa85f86cb39)" style="fill: #9dd93b; fill-opacity: 0.9"/>
    <path d="M 145.796055 145.636539 
L 141.792961 145.551119 
L 129.579464 142.593447 
z
" clip-path="url(#pa85f86cb39)" style="fill: #86d549; fill-opacity: 0.9"/>
    <path d="M 179.97281 148.433376 
L 192.930619 148.111534 
L 187.85424 148.497668 
z
" clip-path="url(#pa85f86cb39)" style="fill: #73d056; fill-opacity: 0.9"/>
    <path d="M 228.907966 143.485078 
L 225.762382 144.600261 
L 240.104783 140.609882 
z
" clip-path="url(#pa85f86cb39)" style="fill: #93d741; fill-opacity: 0.9"/>
    <path d="M 214.746547 146.163222 
L 193.253909 148.324197 
L 192.930619 148.111534 
z
" clip-path="url(#pa85f86cb39)" style="fill: #7ad151; fill-opacity: 0.9"/>
    <path d="M 179.97281 148.433376 
L 162.794753 147.946765 
L 163.719771 147.14369 
z
" clip-path="url(#pa85f86cb39)" style="fill: #7ad151; fill-opacity: 0.9"/>
    <path d="M 120.225882 140.372622 
L 113.42065 140.307305 
L 104.853648 138.032898 
z
" clip-path="url(#pa85f86cb39)" style="fill: #a8db34; fill-opacity: 0.9"/>
    <path d="M 214.746547 146.163222 
L 225.762382 144.600261 
L 223.647964 144.613576 
z
" clip-path="url(#pa85f86cb39)" style="fill: #8bd646; fill-opacity: 0.9"/>
    <path d="M 129.579464 142.593447 
L 148.056595 145.791355 
L 145.796055 145.636539 
z
" clip-path="url(#pa85f86cb39)" style="fill: #90d743; fill-opacity: 0.9"/>
    <path d="M 120.225882 140.372622 
L 104.853648 138.032898 
L 101.832532 137.272525 
z
" clip-path="url(#pa85f86cb39)" style="fill: #b2dd2d; fill-opacity: 0.9"/>
    <path d="M 158.43973 146.590291 
L 162.794753 147.946765 
L 148.056595 145.791355 
z
" clip-path="url(#pa85f86cb39)" style="fill: #84d44b; fill-opacity: 0.9"/>
    <path d="M 101.832532 137.272525 
L 100.074215 136.849122 
L 120.225882 140.372622 
z
" clip-path="url(#pa85f86cb39)" style="fill: #b5de2b; fill-opacity: 0.9"/>
    <path d="M 240.104783 140.609882 
L 226.559559 144.526233 
L 242.20697 139.963874 
z
" clip-path="url(#pa85f86cb39)" style="fill: #a0da39; fill-opacity: 0.9"/>
    <path d="M 125.887166 142.073003 
L 113.42065 140.307305 
L 120.225882 140.372622 
z
" clip-path="url(#pa85f86cb39)" style="fill: #a8db34; fill-opacity: 0.9"/>
    <path d="M 254.088309 136.004085 
L 242.20697 139.963874 
L 215.166169 148.776349 
z
" clip-path="url(#pa85f86cb39)" style="fill: #aadc32; fill-opacity: 0.9"/>
    <path d="M 163.719771 147.14369 
L 162.794753 147.946765 
L 158.43973 146.590291 
z
" clip-path="url(#pa85f86cb39)" style="fill: #8ed645; fill-opacity: 0.9"/>
    <path d="M 226.559559 144.526233 
L 240.104783 140.609882 
L 225.762382 144.600261 
z
" clip-path="url(#pa85f86cb39)" style="fill: #a8db34; fill-opacity: 0.9"/>
    <path d="M 148.056595 145.791355 
L 129.579464 142.593447 
L 125.981115 141.517832 
z
" clip-path="url(#pa85f86cb39)" style="fill: #a8db34; fill-opacity: 0.9"/>
    <path d="M 125.981115 141.517832 
L 129.579464 142.593447 
L 125.887166 142.073003 
z
" clip-path="url(#pa85f86cb39)" style="fill: #b0dd2f; fill-opacity: 0.9"/>
    <path d="M 192.930619 148.111534 
L 201.987946 148.082355 
L 214.746547 146.163222 
z
" clip-path="url(#pa85f86cb39)" style="fill: #98d83e; fill-opacity: 0.9"/>
    <path d="M 120.225882 140.372622 
L 125.981115 141.517832 
L 125.887166 142.073003 
z
" clip-path="url(#pa85f86cb39)" style="fill: #bddf26; fill-opacity: 0.9"/>
    <path d="M 180.191177 148.558487 
L 192.930619 148.111534 
L 179.97281 148.433376 
z
" clip-path="url(#pa85f86cb39)" style="fill: #98d83e; fill-opacity: 0.9"/>
    <path d="M 148.056595 145.791355 
L 154.290488 146.080324 
L 158.43973 146.590291 
z
" clip-path="url(#pa85f86cb39)" style="fill: #a5db36; fill-opacity: 0.9"/>
    <path d="M 148.056595 145.791355 
L 125.981115 141.517832 
L 154.290488 146.080324 
z
" clip-path="url(#pa85f86cb39)" style="fill: #addc30; fill-opacity: 0.9"/>
    <path d="M 242.20697 139.963874 
L 226.559559 144.526233 
L 218.949031 147.078388 
z
" clip-path="url(#pa85f86cb39)" style="fill: #b8de29; fill-opacity: 0.9"/>
    <path d="M 211.453134 147.74342 
L 225.762382 144.600261 
L 214.746547 146.163222 
z
" clip-path="url(#pa85f86cb39)" style="fill: #aadc32; fill-opacity: 0.9"/>
    <path d="M 179.97281 148.433376 
L 163.719771 147.14369 
L 180.191177 148.558487 
z
" clip-path="url(#pa85f86cb39)" style="fill: #a0da39; fill-opacity: 0.9"/>
    <path d="M 158.43973 146.590291 
L 159.641134 146.710094 
L 163.719771 147.14369 
z
" clip-path="url(#pa85f86cb39)" style="fill: #addc30; fill-opacity: 0.9"/>
    <path d="M 158.43973 146.590291 
L 154.290488 146.080324 
L 159.641134 146.710094 
z
" clip-path="url(#pa85f86cb39)" style="fill: #b2dd2d; fill-opacity: 0.9"/>
    <path d="M 214.746547 146.163222 
L 201.987946 148.082355 
L 211.453134 147.74342 
z
" clip-path="url(#pa85f86cb39)" style="fill: #b0dd2f; fill-opacity: 0.9"/>
    <path d="M 201.987946 148.082355 
L 192.930619 148.111534 
L 197.222532 148.302137 
z
" clip-path="url(#pa85f86cb39)" style="fill: #aadc32; fill-opacity: 0.9"/>
    <path d="M 226.559559 144.526233 
L 225.762382 144.600261 
L 211.453134 147.74342 
z
" clip-path="url(#pa85f86cb39)" style="fill: #bade28; fill-opacity: 0.9"/>
    <path d="M 192.930619 148.111534 
L 180.191177 148.558487 
L 197.222532 148.302137 
z
" clip-path="url(#pa85f86cb39)" style="fill: #b2dd2d; fill-opacity: 0.9"/>
    <path d="M 180.191177 148.558487 
L 163.719771 147.14369 
L 159.641134 146.710094 
z
" clip-path="url(#pa85f86cb39)" style="fill: #b8de29; fill-opacity: 0.9"/>
    <path d="M 215.166169 148.776349 
L 242.20697 139.963874 
L 218.949031 147.078388 
z
" clip-path="url(#pa85f86cb39)" style="fill: #cde11d; fill-opacity: 0.9"/>
    <path d="M 211.453134 147.74342 
L 218.949031 147.078388 
L 226.559559 144.526233 
z
" clip-path="url(#pa85f86cb39)" style="fill: #cae11f; fill-opacity: 0.9"/>
    <path d="M 201.987946 148.082355 
L 197.222532 148.302137 
L 193.366874 148.837341 
z
" clip-path="url(#pa85f86cb39)" style="fill: #c2df23; fill-opacity: 0.9"/>
    <path d="M 175.384231 149.231863 
L 125.981115 141.517832 
L 120.225882 140.372622 
z
" clip-path="url(#pa85f86cb39)" style="fill: #dde318; fill-opacity: 0.9"/>
    <path d="M 154.290488 146.080324 
L 125.981115 141.517832 
L 175.384231 149.231863 
z
" clip-path="url(#pa85f86cb39)" style="fill: #d5e21a; fill-opacity: 0.9"/>
    <path d="M 154.290488 146.080324 
L 175.384231 149.231863 
L 159.641134 146.710094 
z
" clip-path="url(#pa85f86cb39)" style="fill: #cde11d; fill-opacity: 0.9"/>
    <path d="M 193.366874 148.837341 
L 211.453134 147.74342 
L 201.987946 148.082355 
z
" clip-path="url(#pa85f86cb39)" style="fill: #cae11f; fill-opacity: 0.9"/>
    <path d="M 193.366874 148.837341 
L 197.222532 148.302137 
L 180.191177 148.558487 
z
" clip-path="url(#pa85f86cb39)" style="fill: #cae11f; fill-opacity: 0.9"/>
    <path d="M 180.191177 148.558487 
L 159.641134 146.710094 
L 175.384231 149.231863 
z
" clip-path="url(#pa85f86cb39)" style="fill: #d5e21a; fill-opacity: 0.9"/>
    <path d="M 180.191177 148.558487 
L 179.602833 148.968432 
L 193.366874 148.837341 
z
" clip-path="url(#pa85f86cb39)" style="fill: #dae319; fill-opacity: 0.9"/>
    <path d="M 215.166169 148.776349 
L 218.949031 147.078388 
L 211.453134 147.74342 
z
" clip-path="url(#pa85f86cb39)" style="fill: #dfe318; fill-opacity: 0.9"/>
    <path d="M 207.343264 149.665722 
L 211.453134 147.74342 
L 193.366874 148.837341 
z
" clip-path="url(#pa85f86cb39)" style="fill: #dde318; fill-opacity: 0.9"/>
    <path d="M 211.453134 147.74342 
L 207.343264 149.665722 
L 215.166169 148.776349 
z
" clip-path="url(#pa85f86cb39)" style="fill: #e7e419; fill-opacity: 0.9"/>
    <path d="M 179.602833 148.968432 
L 180.191177 148.558487 
L 175.384231 149.231863 
z
" clip-path="url(#pa85f86cb39)" style="fill: #e7e419; fill-opacity: 0.9"/>
    <path d="M 193.366874 148.837341 
L 179.602833 148.968432 
L 193.109934 151.033418 
z
" clip-path="url(#pa85f86cb39)" style="fill: #ece51b; fill-opacity: 0.9"/>
    <path d="M 202.27129 150.787781 
L 207.343264 149.665722 
L 193.366874 148.837341 
z
" clip-path="url(#pa85f86cb39)" style="fill: #efe51c; fill-opacity: 0.9"/>
    <path d="M 179.602833 148.968432 
L 175.384231 149.231863 
L 179.108079 149.549539 
z
" clip-path="url(#pa85f86cb39)" style="fill: #f4e61e; fill-opacity: 0.9"/>
    <path d="M 193.109934 151.033418 
L 202.27129 150.787781 
L 193.366874 148.837341 
z
" clip-path="url(#pa85f86cb39)" style="fill: #f4e61e; fill-opacity: 0.9"/>
    <path d="M 207.343264 149.665722 
L 202.27129 150.787781 
L 215.166169 148.776349 
z
" clip-path="url(#pa85f86cb39)" style="fill: #f8e621; fill-opacity: 0.9"/>
    <path d="M 179.108079 149.549539 
L 193.109934 151.033418 
L 179.602833 148.968432 
z
" clip-path="url(#pa85f86cb39)" style="fill: #f8e621; fill-opacity: 0.9"/>
    <path d="M 175.384231 149.231863 
L 193.109934 151.033418 
L 179.108079 149.549539 
z
" clip-path="url(#pa85f86cb39)" style="fill: #fde725; fill-opacity: 0.9"/>
   </g>
   <g id="text_23">
    <!-- $\hat{K}_{II}^{\dot{\Omega}}$ (euler) -->
    <g transform="translate(121.44 41.604) scale(0.24 -0.24)">
     <defs>
      <path id="DejaVuSans-302" d="M -1831 5119 
L -1369 5119 
L -603 3944 
L -1038 3944 
L -1600 4709 
L -2163 3944 
L -2597 3944 
L -1831 5119 
z
M -1600 3584 
L -1600 3584 
z
" transform="scale(0.015625)"/>
      <path id="DejaVuSans-Oblique-4b" d="M 1081 4666 
L 1716 4666 
L 1331 2700 
L 3781 4666 
L 4622 4666 
L 1850 2438 
L 3878 0 
L 3109 0 
L 1247 2272 
L 806 0 
L 172 0 
L 1081 4666 
z
" transform="scale(0.015625)"/>
      <path id="DejaVuSans-307" d="M -1894 4863 
L -1319 4863 
L -1319 4134 
L -1894 4134 
L -1894 4863 
z
M -1600 3584 
L -1600 3584 
z
" transform="scale(0.015625)"/>
      <path id="DejaVuSans-3a9" d="M 4647 556 
L 4647 0 
L 2772 0 
L 2772 556 
Q 3325 859 3634 1378 
Q 3944 1897 3944 2528 
Q 3944 3278 3531 3731 
Q 3119 4184 2444 4184 
Q 1769 4184 1355 3729 
Q 941 3275 941 2528 
Q 941 1897 1250 1378 
Q 1563 859 2119 556 
L 2119 0 
L 244 0 
L 244 556 
L 1241 556 
Q 747 991 519 1456 
Q 294 1922 294 2497 
Q 294 3491 894 4106 
Q 1491 4722 2444 4722 
Q 3391 4722 3994 4106 
Q 4594 3494 4594 2528 
Q 4594 1922 4372 1459 
Q 4150 997 3647 556 
L 4647 556 
z
" transform="scale(0.015625)"/>
      <path id="DejaVuSans-Oblique-49" d="M 1081 4666 
L 1716 4666 
L 806 0 
L 172 0 
L 1081 4666 
z
" transform="scale(0.015625)"/>
      <path id="DejaVuSans-20" transform="scale(0.015625)"/>
      <path id="DejaVuSans-28" d="M 1984 4856 
Q 1566 4138 1362 3434 
Q 1159 2731 1159 2009 
Q 1159 1288 1364 580 
Q 1569 -128 1984 -844 
L 1484 -844 
Q 1016 -109 783 600 
Q 550 1309 550 2009 
Q 550 2706 781 3412 
Q 1013 4119 1484 4856 
L 1984 4856 
z
" transform="scale(0.015625)"/>
      <path id="DejaVuSans-65" d="M 3597 1894 
L 3597 1613 
L 953 1613 
Q 991 1019 1311 708 
Q 1631 397 2203 397 
Q 2534 397 2845 478 
Q 3156 559 3463 722 
L 3463 178 
Q 3153 47 2828 -22 
Q 2503 -91 2169 -91 
Q 1331 -91 842 396 
Q 353 884 353 1716 
Q 353 2575 817 3079 
Q 1281 3584 2069 3584 
Q 2775 3584 3186 3129 
Q 3597 2675 3597 1894 
z
M 3022 2063 
Q 3016 2534 2758 2815 
Q 2500 3097 2075 3097 
Q 1594 3097 1305 2825 
Q 1016 2553 972 2059 
L 3022 2063 
z
" transform="scale(0.015625)"/>
      <path id="DejaVuSans-75" d="M 544 1381 
L 544 3500 
L 1119 3500 
L 1119 1403 
Q 1119 906 1312 657 
Q 1506 409 1894 409 
Q 2359 409 2629 706 
Q 2900 1003 2900 1516 
L 2900 3500 
L 3475 3500 
L 3475 0 
L 2900 0 
L 2900 538 
Q 2691 219 2414 64 
Q 2138 -91 1772 -91 
Q 1169 -91 856 284 
Q 544 659 544 1381 
z
M 1991 3584 
L 1991 3584 
z
" transform="scale(0.015625)"/>
      <path id="DejaVuSans-6c" d="M 603 4863 
L 1178 4863 
L 1178 0 
L 603 0 
L 603 4863 
z
" transform="scale(0.015625)"/>
      <path id="DejaVuSans-72" d="M 2631 2963 
Q 2534 3019 2420 3045 
Q 2306 3072 2169 3072 
Q 1681 3072 1420 2755 
Q 1159 2438 1159 1844 
L 1159 0 
L 581 0 
L 581 3500 
L 1159 3500 
L 1159 2956 
Q 1341 3275 1631 3429 
Q 1922 3584 2338 3584 
Q 2397 3584 2469 3576 
Q 2541 3569 2628 3553 
L 2631 2963 
z
" transform="scale(0.015625)"/>
      <path id="DejaVuSans-29" d="M 513 4856 
L 1013 4856 
Q 1481 4119 1714 3412 
Q 1947 2706 1947 2009 
Q 1947 1309 1714 600 
Q 1481 -109 1013 -844 
L 513 -844 
Q 928 -128 1133 580 
Q 1338 1288 1338 2009 
Q 1338 2731 1133 3434 
Q 928 4138 513 4856 
z
" transform="scale(0.015625)"/>
     </defs>
     <use xlink:href="#DejaVuSans-302" transform="translate(65.972168 29.739062)"/>
     <use xlink:href="#DejaVuSans-Oblique-4b" transform="translate(0 0.332812)"/>
     <use xlink:href="#DejaVuSans-307" transform="translate(117.624756 59.807812) scale(0.7)"/>
     <use xlink:href="#DejaVuSans-3a9" transform="translate(66.533203 38.614063) scale(0.7)"/>
     <use xlink:href="#DejaVuSans-Oblique-49" transform="translate(66.533203 -27.010938) scale(0.7)"/>
     <use xlink:href="#DejaVuSans-Oblique-49" transform="translate(87.177734 -27.010938) scale(0.7)"/>
     <use xlink:href="#DejaVuSans-20" transform="translate(122.758789 0.332812)"/>
     <use xlink:href="#DejaVuSans-28" transform="translate(154.545898 0.332812)"/>
     <use xlink:href="#DejaVuSans-65" transform="translate(193.55957 0.332812)"/>
     <use xlink:href="#DejaVuSans-75" transform="translate(255.083008 0.332812)"/>
     <use xlink:href="#DejaVuSans-6c" transform="translate(318.461914 0.332812)"/>
     <use xlink:href="#DejaVuSans-65" transform="translate(346.245117 0.332812)"/>
     <use xlink:href="#DejaVuSans-72" transform="translate(407.768555 0.332812)"/>
     <use xlink:href="#DejaVuSans-29" transform="translate(448.881836 0.332812)"/>
    </g>
   </g>
  </g>
 </g>
 <defs>
  <clipPath id="pa85f86cb39">
   <rect x="65.562" y="48.324" width="228.876" height="228.876"/>
  </clipPath>
 </defs>
</svg>
