<?xml version="1.0" encoding="utf-8" standalone="no"?>
<!DOCTYPE svg PUBLIC "-//W3C//DTD SVG 1.1//EN"
  "http://www.w3.org/Graphics/SVG/1.1/DTD/svg11.dtd">
<svg xmlns:xlink="http://www.w3.org/1999/xlink" width="360pt" height="288pt" viewBox="0 0 360 288" xmlns="http://www.w3.org/2000/svg" version="1.1">
 <metadata>
  <rdf:RDF xmlns:dc="http://purl.org/dc/elements/1.1/" xmlns:cc="http://creativecommons.org/ns#" xmlns:rdf="http://www.w3.org/1999/02/22-rdf-syntax-ns#">
   <cc:Work>
    <dc:type rdf:resource="http://purl.org/dc/dcmitype/StillImage"/>
    <dc:date>2025-12-05T11:16:25.942321</dc:date>
    <dc:format>image/svg+xml</dc:format>
    <dc:creator>
     <cc:Agent>
      <dc:title>Matplotlib v3.8.0, https://matplotlib.org/</dc:title>
     </cc:Agent>
    </dc:creator>
   </cc:Work>
  </rdf:RDF>
 </metadata>
 <defs>
  <style type="text/css">*{stroke-linejoin: round; stroke-linecap: butt}</style>
 </defs>
 <g id="figure_1">
  <g id="patch_1">
   <path d="M 0 288 
L 360 288 
L 360 0 
L 0 0 
z
" style="fill: #ffffff"/>
  </g>
  <g id="patch_2">
   <path d="M 65.04 277.2 
L 294.96 277.2 
L 294.96 47.28 
L 65.04 47.28 
z
" style="fill: #ffffff"/>
  </g>
  <g id="pane3d_1">
   <g id="patch_3">
    <path d="M 82.400546 220.509096 
L 158.327638 156.865502 
L 157.272179 65.080061 
L 77.711583 123.13976 
" style="fill: #f2f2f2; opacity: 0.5; stroke: #f2f2f2; stroke-linejoin: miter"/>
   </g>
  </g>
  <g id="pane3d_2">
   <g id="patch_4">
    <path d="M 158.327638 156.865502 
L 280.163532 192.278386 
L 284.511425 97.3315 
L 157.272179 65.080061 
" style="fill: #e6e6e6; opacity: 0.5; stroke: #e6e6e6; stroke-linejoin: miter"/>
   </g>
  </g>
  <g id="pane3d_3">
   <g id="patch_5">
    <path d="M 82.400546 220.509096 
L 211.552543 262.690138 
L 280.163532 192.278386 
L 158.327638 156.865502 
" style="fill: #ececec; opacity: 0.5; stroke: #ececec; stroke-linejoin: miter"/>
   </g>
  </g>
  <g id="grid3d_1">
   <g id="Line3DCollection_1">
    <path d="M 89.74879 222.909033 
L 165.288546 158.888762 
L 164.527342 66.919033 
" style="fill: none; stroke: #b0b0b0; stroke-width: 0.8"/>
    <path d="M 108.000517 228.870047 
L 182.563044 163.909777 
L 182.539636 71.484624 
" style="fill: none; stroke: #b0b0b0; stroke-width: 0.8"/>
    <path d="M 126.532888 234.922719 
L 200.081089 169.001581 
L 200.816885 76.117374 
" style="fill: none; stroke: #b0b0b0; stroke-width: 0.8"/>
    <path d="M 145.352425 241.06918 
L 217.847867 174.165682 
L 219.364981 80.818776 
" style="fill: none; stroke: #b0b0b0; stroke-width: 0.8"/>
    <path d="M 164.465855 247.311626 
L 235.868713 179.403631 
L 238.189987 85.590366 
" style="fill: none; stroke: #b0b0b0; stroke-width: 0.8"/>
    <path d="M 183.880117 253.652324 
L 254.149117 184.717022 
L 257.298152 90.433729 
" style="fill: none; stroke: #b0b0b0; stroke-width: 0.8"/>
    <path d="M 203.60237 260.093612 
L 272.694727 190.107499 
L 276.695912 95.350496 
" style="fill: none; stroke: #b0b0b0; stroke-width: 0.8"/>
   </g>
  </g>
  <g id="grid3d_2">
   <g id="Line3DCollection_2">
    <path d="M 82.679563 119.514355 
L 87.124788 216.549142 
L 215.839282 258.29089 
" style="fill: none; stroke: #b0b0b0; stroke-width: 0.8"/>
    <path d="M 95.127587 110.430353 
L 98.971923 206.618639 
L 226.578901 247.269398 
" style="fill: none; stroke: #b0b0b0; stroke-width: 0.8"/>
    <path d="M 107.24642 101.586582 
L 110.519274 196.939421 
L 237.032513 236.541421 
" style="fill: none; stroke: #b0b0b0; stroke-width: 0.8"/>
    <path d="M 119.048948 92.973634 
L 121.778076 187.502069 
L 247.211393 226.095386 
" style="fill: none; stroke: #b0b0b0; stroke-width: 0.8"/>
    <path d="M 130.547396 84.58259 
L 132.759013 178.297631 
L 257.126229 215.920325 
" style="fill: none; stroke: #b0b0b0; stroke-width: 0.8"/>
    <path d="M 141.753366 76.404984 
L 143.472244 169.317587 
L 266.787166 206.005828 
" style="fill: none; stroke: #b0b0b0; stroke-width: 0.8"/>
    <path d="M 152.677877 68.432773 
L 153.927443 160.553833 
L 276.203831 196.342012 
" style="fill: none; stroke: #b0b0b0; stroke-width: 0.8"/>
   </g>
  </g>
  <g id="grid3d_3">
   <g id="Line3DCollection_3">
    <path d="M 280.648675 181.684092 
L 158.209648 146.604742 
L 81.878128 209.660767 
" style="fill: none; stroke: #b0b0b0; stroke-width: 0.8"/>
    <path d="M 281.462417 163.914037 
L 158.011865 129.40499 
L 81.001425 191.455449 
" style="fill: none; stroke: #b0b0b0; stroke-width: 0.8"/>
    <path d="M 282.289851 145.844994 
L 157.810914 111.929783 
L 80.109403 172.932038 
" style="fill: none; stroke: #b0b0b0; stroke-width: 0.8"/>
    <path d="M 283.131325 127.469353 
L 157.606718 94.172448 
L 79.201658 154.082124 
" style="fill: none; stroke: #b0b0b0; stroke-width: 0.8"/>
    <path d="M 283.9872 108.779244 
L 157.3992 76.1261 
L 78.27777 134.896997 
" style="fill: none; stroke: #b0b0b0; stroke-width: 0.8"/>
   </g>
  </g>
  <g id="axis3d_1">
   <g id="line2d_1">
    <path d="M 82.400546 220.509096 
L 211.552543 262.690138 
" style="fill: none; stroke: #000000; stroke-width: 0.8; stroke-linecap: square"/>
   </g>
   <g id="xtick_1">
    <g id="line2d_2">
     <path d="M 90.406576 222.351557 
L 88.430398 224.026377 
" style="fill: none; stroke: #000000; stroke-width: 0.8; stroke-linecap: square"/>
    </g>
    <g id="text_1">
     <!-- 0.2 -->
     <g transform="translate(74.263229 246.223588) scale(0.1 -0.1)">
      <defs>
       <path id="DejaVuSans-30" d="M 2034 4250 
Q 1547 4250 1301 3770 
Q 1056 3291 1056 2328 
Q 1056 1369 1301 889 
Q 1547 409 2034 409 
Q 2525 409 2770 889 
Q 3016 1369 3016 2328 
Q 3016 3291 2770 3770 
Q 2525 4250 2034 4250 
z
M 2034 4750 
Q 2819 4750 3233 4129 
Q 3647 3509 3647 2328 
Q 3647 1150 3233 529 
Q 2819 -91 2034 -91 
Q 1250 -91 836 529 
Q 422 1150 422 2328 
Q 422 3509 836 4129 
Q 1250 4750 2034 4750 
z
" transform="scale(0.015625)"/>
       <path id="DejaVuSans-2e" d="M 684 794 
L 1344 794 
L 1344 0 
L 684 0 
L 684 794 
z
" transform="scale(0.015625)"/>
       <path id="DejaVuSans-32" d="M 1228 531 
L 3431 531 
L 3431 0 
L 469 0 
L 469 531 
Q 828 903 1448 1529 
Q 2069 2156 2228 2338 
Q 2531 2678 2651 2914 
Q 2772 3150 2772 3378 
Q 2772 3750 2511 3984 
Q 2250 4219 1831 4219 
Q 1534 4219 1204 4116 
Q 875 4013 500 3803 
L 500 4441 
Q 881 4594 1212 4672 
Q 1544 4750 1819 4750 
Q 2544 4750 2975 4387 
Q 3406 4025 3406 3419 
Q 3406 3131 3298 2873 
Q 3191 2616 2906 2266 
Q 2828 2175 2409 1742 
Q 1991 1309 1228 531 
z
" transform="scale(0.015625)"/>
      </defs>
      <use xlink:href="#DejaVuSans-30"/>
      <use xlink:href="#DejaVuSans-2e" x="63.623047"/>
      <use xlink:href="#DejaVuSans-32" x="95.410156"/>
     </g>
    </g>
   </g>
   <g id="xtick_2">
    <g id="line2d_3">
     <path d="M 108.650195 228.304035 
L 106.698352 230.004518 
" style="fill: none; stroke: #000000; stroke-width: 0.8; stroke-linecap: square"/>
    </g>
    <g id="text_2">
     <!-- 0.3 -->
     <g transform="translate(92.536385 252.330881) scale(0.1 -0.1)">
      <defs>
       <path id="DejaVuSans-33" d="M 2597 2516 
Q 3050 2419 3304 2112 
Q 3559 1806 3559 1356 
Q 3559 666 3084 287 
Q 2609 -91 1734 -91 
Q 1441 -91 1130 -33 
Q 819 25 488 141 
L 488 750 
Q 750 597 1062 519 
Q 1375 441 1716 441 
Q 2309 441 2620 675 
Q 2931 909 2931 1356 
Q 2931 1769 2642 2001 
Q 2353 2234 1838 2234 
L 1294 2234 
L 1294 2753 
L 1863 2753 
Q 2328 2753 2575 2939 
Q 2822 3125 2822 3475 
Q 2822 3834 2567 4026 
Q 2313 4219 1838 4219 
Q 1578 4219 1281 4162 
Q 984 4106 628 3988 
L 628 4550 
Q 988 4650 1302 4700 
Q 1616 4750 1894 4750 
Q 2613 4750 3031 4423 
Q 3450 4097 3450 3541 
Q 3450 3153 3228 2886 
Q 3006 2619 2597 2516 
z
" transform="scale(0.015625)"/>
      </defs>
      <use xlink:href="#DejaVuSans-30"/>
      <use xlink:href="#DejaVuSans-2e" x="63.623047"/>
      <use xlink:href="#DejaVuSans-33" x="95.410156"/>
     </g>
    </g>
   </g>
   <g id="xtick_3">
    <g id="line2d_4">
     <path d="M 127.174131 234.347974 
L 125.247608 236.074713 
" style="fill: none; stroke: #000000; stroke-width: 0.8; stroke-linecap: square"/>
    </g>
    <g id="text_3">
     <!-- 0.4 -->
     <g transform="translate(111.091741 258.532491) scale(0.1 -0.1)">
      <defs>
       <path id="DejaVuSans-34" d="M 2419 4116 
L 825 1625 
L 2419 1625 
L 2419 4116 
z
M 2253 4666 
L 3047 4666 
L 3047 1625 
L 3713 1625 
L 3713 1100 
L 3047 1100 
L 3047 0 
L 2419 0 
L 2419 1100 
L 313 1100 
L 313 1709 
L 2253 4666 
z
" transform="scale(0.015625)"/>
      </defs>
      <use xlink:href="#DejaVuSans-30"/>
      <use xlink:href="#DejaVuSans-2e" x="63.623047"/>
      <use xlink:href="#DejaVuSans-34" x="95.410156"/>
     </g>
    </g>
   </g>
   <g id="xtick_4">
    <g id="line2d_5">
     <path d="M 145.984892 240.485498 
L 144.084712 242.239107 
" style="fill: none; stroke: #000000; stroke-width: 0.8; stroke-linecap: square"/>
    </g>
    <g id="text_4">
     <!-- 0.5 -->
     <g transform="translate(129.935887 264.830622) scale(0.1 -0.1)">
      <defs>
       <path id="DejaVuSans-35" d="M 691 4666 
L 3169 4666 
L 3169 4134 
L 1269 4134 
L 1269 2991 
Q 1406 3038 1543 3061 
Q 1681 3084 1819 3084 
Q 2600 3084 3056 2656 
Q 3513 2228 3513 1497 
Q 3513 744 3044 326 
Q 2575 -91 1722 -91 
Q 1428 -91 1123 -41 
Q 819 9 494 109 
L 494 744 
Q 775 591 1075 516 
Q 1375 441 1709 441 
Q 2250 441 2565 725 
Q 2881 1009 2881 1497 
Q 2881 1984 2565 2268 
Q 2250 2553 1709 2553 
Q 1456 2553 1204 2497 
Q 953 2441 691 2322 
L 691 4666 
z
" transform="scale(0.015625)"/>
      </defs>
      <use xlink:href="#DejaVuSans-30"/>
      <use xlink:href="#DejaVuSans-2e" x="63.623047"/>
      <use xlink:href="#DejaVuSans-35" x="95.410156"/>
     </g>
    </g>
   </g>
   <g id="xtick_5">
    <g id="line2d_6">
     <path d="M 165.089194 246.718797 
L 163.216418 248.499908 
" style="fill: none; stroke: #000000; stroke-width: 0.8; stroke-linecap: square"/>
    </g>
    <g id="text_5">
     <!-- 0.6 -->
     <g transform="translate(149.075617 271.227543) scale(0.1 -0.1)">
      <defs>
       <path id="DejaVuSans-36" d="M 2113 2584 
Q 1688 2584 1439 2293 
Q 1191 2003 1191 1497 
Q 1191 994 1439 701 
Q 1688 409 2113 409 
Q 2538 409 2786 701 
Q 3034 994 3034 1497 
Q 3034 2003 2786 2293 
Q 2538 2584 2113 2584 
z
M 3366 4563 
L 3366 3988 
Q 3128 4100 2886 4159 
Q 2644 4219 2406 4219 
Q 1781 4219 1451 3797 
Q 1122 3375 1075 2522 
Q 1259 2794 1537 2939 
Q 1816 3084 2150 3084 
Q 2853 3084 3261 2657 
Q 3669 2231 3669 1497 
Q 3669 778 3244 343 
Q 2819 -91 2113 -91 
Q 1303 -91 875 529 
Q 447 1150 447 2328 
Q 447 3434 972 4092 
Q 1497 4750 2381 4750 
Q 2619 4750 2861 4703 
Q 3103 4656 3366 4563 
z
" transform="scale(0.015625)"/>
      </defs>
      <use xlink:href="#DejaVuSans-30"/>
      <use xlink:href="#DejaVuSans-2e" x="63.623047"/>
      <use xlink:href="#DejaVuSans-36" x="95.410156"/>
     </g>
    </g>
   </g>
   <g id="xtick_6">
    <g id="line2d_7">
     <path d="M 184.493961 253.050131 
L 182.649691 254.859397 
" style="fill: none; stroke: #000000; stroke-width: 0.8; stroke-linecap: square"/>
    </g>
    <g id="text_6">
     <!-- 0.7 -->
     <g transform="translate(168.51794 277.725598) scale(0.1 -0.1)">
      <defs>
       <path id="DejaVuSans-37" d="M 525 4666 
L 3525 4666 
L 3525 4397 
L 1831 0 
L 1172 0 
L 2766 4134 
L 525 4134 
L 525 4666 
z
" transform="scale(0.015625)"/>
      </defs>
      <use xlink:href="#DejaVuSans-30"/>
      <use xlink:href="#DejaVuSans-2e" x="63.623047"/>
      <use xlink:href="#DejaVuSans-37" x="95.410156"/>
     </g>
    </g>
   </g>
   <g id="xtick_7">
    <g id="line2d_8">
     <path d="M 204.206338 259.481831 
L 202.391718 261.319924 
" style="fill: none; stroke: #000000; stroke-width: 0.8; stroke-linecap: square"/>
    </g>
    <g id="text_7">
     <!-- 0.8 -->
     <g transform="translate(188.27009 284.327203) scale(0.1 -0.1)">
      <defs>
       <path id="DejaVuSans-38" d="M 2034 2216 
Q 1584 2216 1326 1975 
Q 1069 1734 1069 1313 
Q 1069 891 1326 650 
Q 1584 409 2034 409 
Q 2484 409 2743 651 
Q 3003 894 3003 1313 
Q 3003 1734 2745 1975 
Q 2488 2216 2034 2216 
z
M 1403 2484 
Q 997 2584 770 2862 
Q 544 3141 544 3541 
Q 544 4100 942 4425 
Q 1341 4750 2034 4750 
Q 2731 4750 3128 4425 
Q 3525 4100 3525 3541 
Q 3525 3141 3298 2862 
Q 3072 2584 2669 2484 
Q 3125 2378 3379 2068 
Q 3634 1759 3634 1313 
Q 3634 634 3220 271 
Q 2806 -91 2034 -91 
Q 1263 -91 848 271 
Q 434 634 434 1313 
Q 434 1759 690 2068 
Q 947 2378 1403 2484 
z
M 1172 3481 
Q 1172 3119 1398 2916 
Q 1625 2713 2034 2713 
Q 2441 2713 2670 2916 
Q 2900 3119 2900 3481 
Q 2900 3844 2670 4047 
Q 2441 4250 2034 4250 
Q 1625 4250 1398 4047 
Q 1172 3844 1172 3481 
z
" transform="scale(0.015625)"/>
      </defs>
      <use xlink:href="#DejaVuSans-30"/>
      <use xlink:href="#DejaVuSans-2e" x="63.623047"/>
      <use xlink:href="#DejaVuSans-38" x="95.410156"/>
     </g>
    </g>
   </g>
   <g id="text_8">
    <!-- $L_c / L$ -->
    <g transform="translate(105.574167 275.690311) rotate(-341.912962) scale(0.24 -0.24)">
     <defs>
      <path id="DejaVuSans-Oblique-4c" d="M 1075 4666 
L 1709 4666 
L 909 525 
L 3181 525 
L 3078 0 
L 172 0 
L 1075 4666 
z
" transform="scale(0.015625)"/>
      <path id="DejaVuSans-Oblique-63" d="M 3431 3366 
L 3316 2797 
Q 3109 2947 2876 3022 
Q 2644 3097 2394 3097 
Q 2119 3097 1870 3000 
Q 1622 2903 1453 2725 
Q 1184 2453 1037 2087 
Q 891 1722 891 1331 
Q 891 859 1127 628 
Q 1363 397 1844 397 
Q 2081 397 2348 469 
Q 2616 541 2906 684 
L 2797 116 
Q 2547 13 2283 -39 
Q 2019 -91 1741 -91 
Q 1044 -91 669 257 
Q 294 606 294 1253 
Q 294 1797 489 2255 
Q 684 2713 1069 3078 
Q 1331 3328 1684 3456 
Q 2038 3584 2456 3584 
Q 2700 3584 2940 3529 
Q 3181 3475 3431 3366 
z
" transform="scale(0.015625)"/>
      <path id="DejaVuSans-2f" d="M 1625 4666 
L 2156 4666 
L 531 -594 
L 0 -594 
L 1625 4666 
z
" transform="scale(0.015625)"/>
     </defs>
     <use xlink:href="#DejaVuSans-Oblique-4c" transform="translate(0 0.09375)"/>
     <use xlink:href="#DejaVuSans-Oblique-63" transform="translate(55.712891 -16.3125) scale(0.7)"/>
     <use xlink:href="#DejaVuSans-2f" transform="translate(96.933594 0.09375)"/>
     <use xlink:href="#DejaVuSans-Oblique-4c" transform="translate(130.625 0.09375)"/>
    </g>
   </g>
  </g>
  <g id="axis3d_2">
   <g id="line2d_9">
    <path d="M 280.163532 192.278386 
L 211.552543 262.690138 
" style="fill: none; stroke: #000000; stroke-width: 0.8; stroke-linecap: square"/>
   </g>
   <g id="xtick_8">
    <g id="line2d_10">
     <path d="M 214.754569 257.939121 
L 218.011514 258.995339 
" style="fill: none; stroke: #000000; stroke-width: 0.8; stroke-linecap: square"/>
    </g>
    <g id="text_9">
     <!-- 0.2 -->
     <g transform="translate(220.776713 279.321993) scale(0.1 -0.1)">
      <use xlink:href="#DejaVuSans-30"/>
      <use xlink:href="#DejaVuSans-2e" x="63.623047"/>
      <use xlink:href="#DejaVuSans-32" x="95.410156"/>
     </g>
    </g>
   </g>
   <g id="xtick_9">
    <g id="line2d_11">
     <path d="M 225.504257 246.927057 
L 228.730932 247.954954 
" style="fill: none; stroke: #000000; stroke-width: 0.8; stroke-linecap: square"/>
    </g>
    <g id="text_10">
     <!-- 0.3 -->
     <g transform="translate(231.349621 268.11156) scale(0.1 -0.1)">
      <use xlink:href="#DejaVuSans-30"/>
      <use xlink:href="#DejaVuSans-2e" x="63.623047"/>
      <use xlink:href="#DejaVuSans-33" x="95.410156"/>
     </g>
    </g>
   </g>
   <g id="xtick_10">
    <g id="line2d_12">
     <path d="M 235.96779 236.208134 
L 239.164641 237.208833 
" style="fill: none; stroke: #000000; stroke-width: 0.8; stroke-linecap: square"/>
    </g>
    <g id="text_11">
     <!-- 0.4 -->
     <g transform="translate(241.640771 257.199875) scale(0.1 -0.1)">
      <use xlink:href="#DejaVuSans-30"/>
      <use xlink:href="#DejaVuSans-2e" x="63.623047"/>
      <use xlink:href="#DejaVuSans-34" x="95.410156"/>
     </g>
    </g>
   </g>
   <g id="xtick_11">
    <g id="line2d_13">
     <path d="M 246.156443 225.7708 
L 249.323914 226.745367 
" style="fill: none; stroke: #000000; stroke-width: 0.8; stroke-linecap: square"/>
    </g>
    <g id="text_12">
     <!-- 0.5 -->
     <g transform="translate(251.661278 246.575152) scale(0.1 -0.1)">
      <use xlink:href="#DejaVuSans-30"/>
      <use xlink:href="#DejaVuSans-2e" x="63.623047"/>
      <use xlink:href="#DejaVuSans-35" x="95.410156"/>
     </g>
    </g>
   </g>
   <g id="xtick_12">
    <g id="line2d_14">
     <path d="M 256.080908 215.604102 
L 259.219436 216.553547 
" style="fill: none; stroke: #000000; stroke-width: 0.8; stroke-linecap: square"/>
    </g>
    <g id="text_13">
     <!-- 0.6 -->
     <g transform="translate(261.421679 236.226218) scale(0.1 -0.1)">
      <use xlink:href="#DejaVuSans-30"/>
      <use xlink:href="#DejaVuSans-2e" x="63.623047"/>
      <use xlink:href="#DejaVuSans-36" x="95.410156"/>
     </g>
    </g>
   </g>
   <g id="xtick_13">
    <g id="line2d_15">
     <path d="M 265.751328 205.697649 
L 268.861349 206.622932 
" style="fill: none; stroke: #000000; stroke-width: 0.8; stroke-linecap: square"/>
    </g>
    <g id="text_14">
     <!-- 0.7 -->
     <g transform="translate(270.931973 226.142473) scale(0.1 -0.1)">
      <use xlink:href="#DejaVuSans-30"/>
      <use xlink:href="#DejaVuSans-2e" x="63.623047"/>
      <use xlink:href="#DejaVuSans-37" x="95.410156"/>
     </g>
    </g>
   </g>
   <g id="xtick_14">
    <g id="line2d_16">
     <path d="M 275.177336 196.041575 
L 278.259277 196.943606 
" style="fill: none; stroke: #000000; stroke-width: 0.8; stroke-linecap: square"/>
    </g>
    <g id="text_15">
     <!-- 0.8 -->
     <g transform="translate(280.201651 216.313852) scale(0.1 -0.1)">
      <use xlink:href="#DejaVuSans-30"/>
      <use xlink:href="#DejaVuSans-2e" x="63.623047"/>
      <use xlink:href="#DejaVuSans-38" x="95.410156"/>
     </g>
    </g>
   </g>
   <g id="text_16">
    <!-- $a / W$ -->
    <g transform="translate(262.865605 275.219962) rotate(-45.742112) scale(0.24 -0.24)">
     <defs>
      <path id="DejaVuSans-Oblique-61" d="M 3438 1997 
L 3047 0 
L 2472 0 
L 2578 531 
Q 2325 219 2001 64 
Q 1678 -91 1281 -91 
Q 834 -91 548 182 
Q 263 456 263 884 
Q 263 1497 752 1853 
Q 1241 2209 2100 2209 
L 2900 2209 
L 2931 2363 
Q 2938 2388 2941 2417 
Q 2944 2447 2944 2509 
Q 2944 2788 2717 2942 
Q 2491 3097 2081 3097 
Q 1800 3097 1504 3025 
Q 1209 2953 897 2809 
L 997 3341 
Q 1322 3463 1633 3523 
Q 1944 3584 2234 3584 
Q 2853 3584 3176 3315 
Q 3500 3047 3500 2534 
Q 3500 2431 3484 2292 
Q 3469 2153 3438 1997 
z
M 2816 1759 
L 2241 1759 
Q 1534 1759 1195 1570 
Q 856 1381 856 984 
Q 856 709 1029 553 
Q 1203 397 1509 397 
Q 1978 397 2328 733 
Q 2678 1069 2791 1631 
L 2816 1759 
z
" transform="scale(0.015625)"/>
      <path id="DejaVuSans-Oblique-57" d="M 616 4666 
L 1228 4666 
L 1453 697 
L 3213 4666 
L 3916 4666 
L 4147 697 
L 5888 4666 
L 6528 4666 
L 4453 0 
L 3659 0 
L 3444 3891 
L 1697 0 
L 903 0 
L 616 4666 
z
" transform="scale(0.015625)"/>
     </defs>
     <use xlink:href="#DejaVuSans-Oblique-61" transform="translate(0 0.09375)"/>
     <use xlink:href="#DejaVuSans-2f" transform="translate(61.279297 0.09375)"/>
     <use xlink:href="#DejaVuSans-Oblique-57" transform="translate(94.970703 0.09375)"/>
    </g>
   </g>
  </g>
  <g id="axis3d_3">
   <g id="line2d_17">
    <path d="M 280.163532 192.278386 
L 284.511425 97.3315 
" style="fill: none; stroke: #000000; stroke-width: 0.8; stroke-linecap: square"/>
   </g>
   <g id="xtick_15">
    <g id="line2d_18">
     <path d="M 279.620834 181.389611 
L 282.706814 182.273758 
" style="fill: none; stroke: #000000; stroke-width: 0.8; stroke-linecap: square"/>
    </g>
    <g id="text_17">
     <!-- −0.04 -->
     <g transform="translate(283.655215 186.702721) scale(0.1 -0.1)">
      <defs>
       <path id="DejaVuSans-2212" d="M 678 2272 
L 4684 2272 
L 4684 1741 
L 678 1741 
L 678 2272 
z
" transform="scale(0.015625)"/>
      </defs>
      <use xlink:href="#DejaVuSans-2212"/>
      <use xlink:href="#DejaVuSans-30" x="83.789062"/>
      <use xlink:href="#DejaVuSans-2e" x="147.412109"/>
      <use xlink:href="#DejaVuSans-30" x="179.199219"/>
      <use xlink:href="#DejaVuSans-34" x="242.822266"/>
     </g>
    </g>
   </g>
   <g id="xtick_16">
    <g id="line2d_19">
     <path d="M 280.425679 163.62423 
L 283.538394 164.49435 
" style="fill: none; stroke: #000000; stroke-width: 0.8; stroke-linecap: square"/>
    </g>
    <g id="text_18">
     <!-- −0.02 -->
     <g transform="translate(284.618471 168.973678) scale(0.1 -0.1)">
      <use xlink:href="#DejaVuSans-2212"/>
      <use xlink:href="#DejaVuSans-30" x="83.789062"/>
      <use xlink:href="#DejaVuSans-2e" x="147.412109"/>
      <use xlink:href="#DejaVuSans-30" x="179.199219"/>
      <use xlink:href="#DejaVuSans-32" x="242.822266"/>
     </g>
    </g>
   </g>
   <g id="xtick_17">
    <g id="line2d_20">
     <path d="M 281.24406 145.56006 
L 284.383977 146.415554 
" style="fill: none; stroke: #000000; stroke-width: 0.8; stroke-linecap: square"/>
    </g>
    <g id="text_19">
     <!-- 0.00 -->
     <g transform="translate(289.787721 150.947394) scale(0.1 -0.1)">
      <use xlink:href="#DejaVuSans-30"/>
      <use xlink:href="#DejaVuSans-2e" x="63.623047"/>
      <use xlink:href="#DejaVuSans-30" x="95.410156"/>
      <use xlink:href="#DejaVuSans-30" x="159.033203"/>
     </g>
    </g>
   </g>
   <g id="xtick_18">
    <g id="line2d_21">
     <path d="M 282.076321 127.189501 
L 285.243919 128.029744 
" style="fill: none; stroke: #000000; stroke-width: 0.8; stroke-linecap: square"/>
    </g>
    <g id="text_20">
     <!-- 0.02 -->
     <g transform="translate(290.783686 132.61633) scale(0.1 -0.1)">
      <use xlink:href="#DejaVuSans-30"/>
      <use xlink:href="#DejaVuSans-2e" x="63.623047"/>
      <use xlink:href="#DejaVuSans-30" x="95.410156"/>
      <use xlink:href="#DejaVuSans-32" x="159.033203"/>
     </g>
    </g>
   </g>
   <g id="xtick_19">
    <g id="line2d_22">
     <path d="M 282.92282 108.504689 
L 286.118591 109.329032 
" style="fill: none; stroke: #000000; stroke-width: 0.8; stroke-linecap: square"/>
    </g>
    <g id="text_21">
     <!-- 0.04 -->
     <g transform="translate(291.796634 113.972692) scale(0.1 -0.1)">
      <use xlink:href="#DejaVuSans-30"/>
      <use xlink:href="#DejaVuSans-2e" x="63.623047"/>
      <use xlink:href="#DejaVuSans-30" x="95.410156"/>
      <use xlink:href="#DejaVuSans-34" x="159.033203"/>
     </g>
    </g>
   </g>
  </g>
  <g id="axes_1">
   <g id="Poly3DCollection_1">
    <path d="M 192.128213 127.015831 
L 167.334707 127.007822 
L 186.968084 127.736749 
z
" clip-path="url(#pd2d8056804)" style="fill: #440154; fill-opacity: 0.9"/>
    <path d="M 186.968084 127.736749 
L 167.334707 127.007822 
L 176.754955 128.264587 
z
" clip-path="url(#pd2d8056804)" style="fill: #440154; fill-opacity: 0.9"/>
    <path d="M 147.789768 127.961703 
L 148.867335 129.381999 
L 167.334707 127.007822 
z
" clip-path="url(#pd2d8056804)" style="fill: #440154; fill-opacity: 0.9"/>
    <path d="M 162.825266 130.971788 
L 167.334707 127.007822 
L 148.867335 129.381999 
z
" clip-path="url(#pd2d8056804)" style="fill: #440154; fill-opacity: 0.9"/>
    <path d="M 176.754955 128.264587 
L 176.090111 132.303496 
L 186.968084 127.736749 
z
" clip-path="url(#pd2d8056804)" style="fill: #440154; fill-opacity: 0.9"/>
    <path d="M 176.754955 128.264587 
L 167.334707 127.007822 
L 172.287349 133.357851 
z
" clip-path="url(#pd2d8056804)" style="fill: #440154; fill-opacity: 0.9"/>
    <path d="M 203.42128 135.691889 
L 192.128213 127.015831 
L 186.968084 127.736749 
z
" clip-path="url(#pd2d8056804)" style="fill: #440154; fill-opacity: 0.9"/>
    <path d="M 172.287349 133.357851 
L 167.334707 127.007822 
L 162.825266 130.971788 
z
" clip-path="url(#pd2d8056804)" style="fill: #440154; fill-opacity: 0.9"/>
    <path d="M 145.779853 134.224668 
L 148.867335 129.381999 
L 147.789768 127.961703 
z
" clip-path="url(#pd2d8056804)" style="fill: #440154; fill-opacity: 0.9"/>
    <path d="M 172.287349 133.357851 
L 176.090111 132.303496 
L 176.754955 128.264587 
z
" clip-path="url(#pd2d8056804)" style="fill: #440154; fill-opacity: 0.9"/>
    <path d="M 149.753816 134.174644 
L 162.825266 130.971788 
L 148.867335 129.381999 
z
" clip-path="url(#pd2d8056804)" style="fill: #440154; fill-opacity: 0.9"/>
    <path d="M 218.886464 133.517617 
L 192.128213 127.015831 
L 203.42128 135.691889 
z
" clip-path="url(#pd2d8056804)" style="fill: #440154; fill-opacity: 0.9"/>
    <path d="M 148.867335 129.381999 
L 145.779853 134.224668 
L 149.753816 134.174644 
z
" clip-path="url(#pd2d8056804)" style="fill: #440154; fill-opacity: 0.9"/>
    <path d="M 186.968084 127.736749 
L 176.090111 132.303496 
L 196.139599 138.450671 
z
" clip-path="url(#pd2d8056804)" style="fill: #440154; fill-opacity: 0.9"/>
    <path d="M 196.139599 138.450671 
L 203.42128 135.691889 
L 186.968084 127.736749 
z
" clip-path="url(#pd2d8056804)" style="fill: #440154; fill-opacity: 0.9"/>
    <path d="M 135.182471 139.99776 
L 145.779853 134.224668 
L 147.789768 127.961703 
z
" clip-path="url(#pd2d8056804)" style="fill: #440154; fill-opacity: 0.9"/>
    <path d="M 162.825266 130.971788 
L 149.753816 134.174644 
L 149.443255 138.356415 
z
" clip-path="url(#pd2d8056804)" style="fill: #440154; fill-opacity: 0.9"/>
    <path d="M 148.191194 137.280075 
L 149.753816 134.174644 
L 145.779853 134.224668 
z
" clip-path="url(#pd2d8056804)" style="fill: #440154; fill-opacity: 0.9"/>
    <path d="M 190.536917 140.678046 
L 176.090111 132.303496 
L 172.287349 133.357851 
z
" clip-path="url(#pd2d8056804)" style="fill: #440154; fill-opacity: 0.9"/>
    <path d="M 218.886464 133.517617 
L 203.42128 135.691889 
L 212.559648 137.623437 
z
" clip-path="url(#pd2d8056804)" style="fill: #440154; fill-opacity: 0.9"/>
    <path d="M 212.559648 137.623437 
L 221.935602 135.980193 
L 218.886464 133.517617 
z
" clip-path="url(#pd2d8056804)" style="fill: #440154; fill-opacity: 0.9"/>
    <path d="M 172.287349 133.357851 
L 162.825266 130.971788 
L 159.615046 143.12699 
z
" clip-path="url(#pd2d8056804)" style="fill: #440154; fill-opacity: 0.9"/>
    <path d="M 148.191194 137.280075 
L 149.443255 138.356415 
L 149.753816 134.174644 
z
" clip-path="url(#pd2d8056804)" style="fill: #440154; fill-opacity: 0.9"/>
    <path d="M 221.935602 135.980193 
L 241.518752 141.100246 
L 218.886464 133.517617 
z
" clip-path="url(#pd2d8056804)" style="fill: #440154; fill-opacity: 0.9"/>
    <path d="M 176.090111 132.303496 
L 190.536917 140.678046 
L 196.139599 138.450671 
z
" clip-path="url(#pd2d8056804)" style="fill: #440154; fill-opacity: 0.9"/>
    <path d="M 145.779853 134.224668 
L 135.182471 139.99776 
L 148.191194 137.280075 
z
" clip-path="url(#pd2d8056804)" style="fill: #440154; fill-opacity: 0.9"/>
    <path d="M 149.443255 138.356415 
L 159.615046 143.12699 
L 162.825266 130.971788 
z
" clip-path="url(#pd2d8056804)" style="fill: #440154; fill-opacity: 0.9"/>
    <path d="M 212.559648 137.623437 
L 220.451459 139.251484 
L 221.935602 135.980193 
z
" clip-path="url(#pd2d8056804)" style="fill: #440154; fill-opacity: 0.9"/>
    <path d="M 126.743704 145.89543 
L 135.182471 139.99776 
L 147.789768 127.961703 
z
" clip-path="url(#pd2d8056804)" style="fill: #440154; fill-opacity: 0.9"/>
    <path d="M 147.904204 140.368595 
L 149.443255 138.356415 
L 148.191194 137.280075 
z
" clip-path="url(#pd2d8056804)" style="fill: #440154; fill-opacity: 0.9"/>
    <path d="M 203.42128 135.691889 
L 208.765995 142.988709 
L 212.559648 137.623437 
z
" clip-path="url(#pd2d8056804)" style="fill: #440154; fill-opacity: 0.9"/>
    <path d="M 241.518752 141.100246 
L 221.935602 135.980193 
L 220.451459 139.251484 
z
" clip-path="url(#pd2d8056804)" style="fill: #440154; fill-opacity: 0.9"/>
    <path d="M 196.139599 138.450671 
L 208.765995 142.988709 
L 203.42128 135.691889 
z
" clip-path="url(#pd2d8056804)" style="fill: #440154; fill-opacity: 0.9"/>
    <path d="M 135.182471 139.99776 
L 147.904204 140.368595 
L 148.191194 137.280075 
z
" clip-path="url(#pd2d8056804)" style="fill: #440154; fill-opacity: 0.9"/>
    <path d="M 213.093468 142.155206 
L 220.451459 139.251484 
L 212.559648 137.623437 
z
" clip-path="url(#pd2d8056804)" style="fill: #440154; fill-opacity: 0.9"/>
    <path d="M 172.287349 133.357851 
L 187.035718 145.422367 
L 190.536917 140.678046 
z
" clip-path="url(#pd2d8056804)" style="fill: #440154; fill-opacity: 0.9"/>
    <path d="M 149.443255 138.356415 
L 147.904204 140.368595 
L 159.615046 143.12699 
z
" clip-path="url(#pd2d8056804)" style="fill: #440154; fill-opacity: 0.9"/>
    <path d="M 208.765995 142.988709 
L 213.093468 142.155206 
L 212.559648 137.623437 
z
" clip-path="url(#pd2d8056804)" style="fill: #440154; fill-opacity: 0.9"/>
    <path d="M 196.139599 138.450671 
L 190.536917 140.678046 
L 197.171072 144.703121 
z
" clip-path="url(#pd2d8056804)" style="fill: #440154; fill-opacity: 0.9"/>
    <path d="M 159.615046 143.12699 
L 168.14956 147.702309 
L 172.287349 133.357851 
z
" clip-path="url(#pd2d8056804)" style="fill: #440154; fill-opacity: 0.9"/>
    <path d="M 220.451459 139.251484 
L 226.160113 143.954277 
L 241.518752 141.100246 
z
" clip-path="url(#pd2d8056804)" style="fill: #440154; fill-opacity: 0.9"/>
    <path d="M 197.171072 144.703121 
L 208.765995 142.988709 
L 196.139599 138.450671 
z
" clip-path="url(#pd2d8056804)" style="fill: #440154; fill-opacity: 0.9"/>
    <path d="M 168.14956 147.702309 
L 187.035718 145.422367 
L 172.287349 133.357851 
z
" clip-path="url(#pd2d8056804)" style="fill: #440154; fill-opacity: 0.9"/>
    <path d="M 220.451459 139.251484 
L 213.093468 142.155206 
L 219.815351 145.354442 
z
" clip-path="url(#pd2d8056804)" style="fill: #440154; fill-opacity: 0.9"/>
    <path d="M 241.087893 141.892513 
L 244.180002 143.772553 
L 241.518752 141.100246 
z
" clip-path="url(#pd2d8056804)" style="fill: #440154; fill-opacity: 0.9"/>
    <path d="M 226.160113 143.954277 
L 241.087893 141.892513 
L 241.518752 141.100246 
z
" clip-path="url(#pd2d8056804)" style="fill: #440154; fill-opacity: 0.9"/>
    <path d="M 219.815351 145.354442 
L 226.160113 143.954277 
L 220.451459 139.251484 
z
" clip-path="url(#pd2d8056804)" style="fill: #440154; fill-opacity: 0.9"/>
    <path d="M 240.869345 143.92288 
L 244.180002 143.772553 
L 241.087893 141.892513 
z
" clip-path="url(#pd2d8056804)" style="fill: #440154; fill-opacity: 0.9"/>
    <path d="M 135.182471 139.99776 
L 142.68009 149.303803 
L 147.904204 140.368595 
z
" clip-path="url(#pd2d8056804)" style="fill: #440154; fill-opacity: 0.9"/>
    <path d="M 240.869345 143.92288 
L 241.087893 141.892513 
L 226.160113 143.954277 
z
" clip-path="url(#pd2d8056804)" style="fill: #440154; fill-opacity: 0.9"/>
    <path d="M 190.536917 140.678046 
L 187.035718 145.422367 
L 197.171072 144.703121 
z
" clip-path="url(#pd2d8056804)" style="fill: #440154; fill-opacity: 0.9"/>
    <path d="M 147.657203 148.148592 
L 159.615046 143.12699 
L 147.904204 140.368595 
z
" clip-path="url(#pd2d8056804)" style="fill: #440154; fill-opacity: 0.9"/>
    <path d="M 213.093468 142.155206 
L 208.765995 142.988709 
L 208.712888 147.028866 
z
" clip-path="url(#pd2d8056804)" style="fill: #440154; fill-opacity: 0.9"/>
    <path d="M 200.168436 145.933987 
L 208.765995 142.988709 
L 197.171072 144.703121 
z
" clip-path="url(#pd2d8056804)" style="fill: #440154; fill-opacity: 0.9"/>
    <path d="M 262.411845 149.564666 
L 241.518752 141.100246 
L 244.180002 143.772553 
z
" clip-path="url(#pd2d8056804)" style="fill: #440154; fill-opacity: 0.9"/>
    <path d="M 213.093468 142.155206 
L 208.712888 147.028866 
L 219.815351 145.354442 
z
" clip-path="url(#pd2d8056804)" style="fill: #440154; fill-opacity: 0.9"/>
    <path d="M 226.160113 143.954277 
L 231.619838 146.728621 
L 240.869345 143.92288 
z
" clip-path="url(#pd2d8056804)" style="fill: #440154; fill-opacity: 0.9"/>
    <path d="M 135.182471 139.99776 
L 126.743704 145.89543 
L 135.486681 149.087956 
z
" clip-path="url(#pd2d8056804)" style="fill: #440154; fill-opacity: 0.9"/>
    <path d="M 241.653096 147.363779 
L 244.180002 143.772553 
L 240.869345 143.92288 
z
" clip-path="url(#pd2d8056804)" style="fill: #440154; fill-opacity: 0.9"/>
    <path d="M 208.712888 147.028866 
L 208.765995 142.988709 
L 200.168436 145.933987 
z
" clip-path="url(#pd2d8056804)" style="fill: #440154; fill-opacity: 0.9"/>
    <path d="M 219.815351 145.354442 
L 221.248378 148.168446 
L 226.160113 143.954277 
z
" clip-path="url(#pd2d8056804)" style="fill: #440154; fill-opacity: 0.9"/>
    <path d="M 147.904204 140.368595 
L 142.68009 149.303803 
L 147.657203 148.148592 
z
" clip-path="url(#pd2d8056804)" style="fill: #440154; fill-opacity: 0.9"/>
    <path d="M 240.869345 143.92288 
L 231.619838 146.728621 
L 241.653096 147.363779 
z
" clip-path="url(#pd2d8056804)" style="fill: #440154; fill-opacity: 0.9"/>
    <path d="M 135.486681 149.087956 
L 142.68009 149.303803 
L 135.182471 139.99776 
z
" clip-path="url(#pd2d8056804)" style="fill: #440154; fill-opacity: 0.9"/>
    <path d="M 226.160113 143.954277 
L 221.248378 148.168446 
L 231.619838 146.728621 
z
" clip-path="url(#pd2d8056804)" style="fill: #440154; fill-opacity: 0.9"/>
    <path d="M 159.615046 143.12699 
L 147.657203 148.148592 
L 168.14956 147.702309 
z
" clip-path="url(#pd2d8056804)" style="fill: #440154; fill-opacity: 0.9"/>
    <path d="M 219.815351 145.354442 
L 208.712888 147.028866 
L 221.248378 148.168446 
z
" clip-path="url(#pd2d8056804)" style="fill: #440154; fill-opacity: 0.9"/>
    <path d="M 197.171072 144.703121 
L 187.035718 145.422367 
L 191.188944 151.432388 
z
" clip-path="url(#pd2d8056804)" style="fill: #440154; fill-opacity: 0.9"/>
    <path d="M 247.30619 150.470767 
L 244.180002 143.772553 
L 241.653096 147.363779 
z
" clip-path="url(#pd2d8056804)" style="fill: #440154; fill-opacity: 0.9"/>
    <path d="M 197.171072 144.703121 
L 191.188944 151.432388 
L 200.168436 145.933987 
z
" clip-path="url(#pd2d8056804)" style="fill: #440154; fill-opacity: 0.9"/>
    <path d="M 244.180002 143.772553 
L 247.30619 150.470767 
L 262.411845 149.564666 
z
" clip-path="url(#pd2d8056804)" style="fill: #440154; fill-opacity: 0.9"/>
    <path d="M 179.647908 153.150767 
L 187.035718 145.422367 
L 168.14956 147.702309 
z
" clip-path="url(#pd2d8056804)" style="fill: #440154; fill-opacity: 0.9"/>
    <path d="M 206.561215 154.177029 
L 208.712888 147.028866 
L 200.168436 145.933987 
z
" clip-path="url(#pd2d8056804)" style="fill: #440154; fill-opacity: 0.9"/>
    <path d="M 218.499731 152.937592 
L 231.619838 146.728621 
L 221.248378 148.168446 
z
" clip-path="url(#pd2d8056804)" style="fill: #440154; fill-opacity: 0.9"/>
    <path d="M 135.486681 149.087956 
L 126.743704 145.89543 
L 120.463307 153.130031 
z
" clip-path="url(#pd2d8056804)" style="fill: #440154; fill-opacity: 0.9"/>
    <path d="M 221.248378 148.168446 
L 208.712888 147.028866 
L 218.499731 152.937592 
z
" clip-path="url(#pd2d8056804)" style="fill: #440154; fill-opacity: 0.9"/>
    <path d="M 167.127509 153.509636 
L 168.14956 147.702309 
L 147.657203 148.148592 
z
" clip-path="url(#pd2d8056804)" style="fill: #440154; fill-opacity: 0.9"/>
    <path d="M 142.68009 149.303803 
L 143.392129 152.37998 
L 147.657203 148.148592 
z
" clip-path="url(#pd2d8056804)" style="fill: #440154; fill-opacity: 0.9"/>
    <path d="M 191.188944 151.432388 
L 187.035718 145.422367 
L 179.647908 153.150767 
z
" clip-path="url(#pd2d8056804)" style="fill: #440154; fill-opacity: 0.9"/>
    <path d="M 143.392129 152.37998 
L 142.68009 149.303803 
L 135.486681 149.087956 
z
" clip-path="url(#pd2d8056804)" style="fill: #440154; fill-opacity: 0.9"/>
    <path d="M 241.653096 147.363779 
L 231.619838 146.728621 
L 235.895295 157.034471 
z
" clip-path="url(#pd2d8056804)" style="fill: #440154; fill-opacity: 0.9"/>
    <path d="M 200.168436 145.933987 
L 191.188944 151.432388 
L 206.561215 154.177029 
z
" clip-path="url(#pd2d8056804)" style="fill: #440154; fill-opacity: 0.9"/>
    <path d="M 218.499731 152.937592 
L 208.712888 147.028866 
L 211.766955 154.290642 
z
" clip-path="url(#pd2d8056804)" style="fill: #440154; fill-opacity: 0.9"/>
    <path d="M 168.14956 147.702309 
L 167.127509 153.509636 
L 179.647908 153.150767 
z
" clip-path="url(#pd2d8056804)" style="fill: #440154; fill-opacity: 0.9"/>
    <path d="M 235.895295 157.034471 
L 247.30619 150.470767 
L 241.653096 147.363779 
z
" clip-path="url(#pd2d8056804)" style="fill: #440154; fill-opacity: 0.9"/>
    <path d="M 211.766955 154.290642 
L 208.712888 147.028866 
L 206.561215 154.177029 
z
" clip-path="url(#pd2d8056804)" style="fill: #440154; fill-opacity: 0.9"/>
    <path d="M 218.499731 152.937592 
L 235.895295 157.034471 
L 231.619838 146.728621 
z
" clip-path="url(#pd2d8056804)" style="fill: #440154; fill-opacity: 0.9"/>
    <path d="M 137.138699 155.69327 
L 143.392129 152.37998 
L 135.486681 149.087956 
z
" clip-path="url(#pd2d8056804)" style="fill: #440154; fill-opacity: 0.9"/>
    <path d="M 120.463307 153.130031 
L 137.138699 155.69327 
L 135.486681 149.087956 
z
" clip-path="url(#pd2d8056804)" style="fill: #440154; fill-opacity: 0.9"/>
    <path d="M 160.075358 157.686862 
L 147.657203 148.148592 
L 143.392129 152.37998 
z
" clip-path="url(#pd2d8056804)" style="fill: #440154; fill-opacity: 0.9"/>
    <path d="M 160.075358 157.686862 
L 167.127509 153.509636 
L 147.657203 148.148592 
z
" clip-path="url(#pd2d8056804)" style="fill: #440154; fill-opacity: 0.9"/>
    <path d="M 256.230714 160.489675 
L 262.411845 149.564666 
L 247.30619 150.470767 
z
" clip-path="url(#pd2d8056804)" style="fill: #440154; fill-opacity: 0.9"/>
    <path d="M 191.188944 151.432388 
L 200.295622 158.434974 
L 206.561215 154.177029 
z
" clip-path="url(#pd2d8056804)" style="fill: #440154; fill-opacity: 0.9"/>
    <path d="M 143.392129 152.37998 
L 137.138699 155.69327 
L 160.075358 157.686862 
z
" clip-path="url(#pd2d8056804)" style="fill: #440154; fill-opacity: 0.9"/>
    <path d="M 132.336968 157.3913 
L 137.138699 155.69327 
L 120.463307 153.130031 
z
" clip-path="url(#pd2d8056804)" style="fill: #440154; fill-opacity: 0.9"/>
    <path d="M 218.499731 152.937592 
L 211.766955 154.290642 
L 210.90659 159.166396 
z
" clip-path="url(#pd2d8056804)" style="fill: #440154; fill-opacity: 0.9"/>
    <path d="M 179.647908 153.150767 
L 188.720469 161.982753 
L 191.188944 151.432388 
z
" clip-path="url(#pd2d8056804)" style="fill: #440154; fill-opacity: 0.9"/>
    <path d="M 160.075358 157.686862 
L 164.487666 156.212008 
L 167.127509 153.509636 
z
" clip-path="url(#pd2d8056804)" style="fill: #440154; fill-opacity: 0.9"/>
    <path d="M 177.154655 160.960284 
L 179.647908 153.150767 
L 167.127509 153.509636 
z
" clip-path="url(#pd2d8056804)" style="fill: #440154; fill-opacity: 0.9"/>
    <path d="M 210.90659 159.166396 
L 211.766955 154.290642 
L 206.561215 154.177029 
z
" clip-path="url(#pd2d8056804)" style="fill: #440154; fill-opacity: 0.9"/>
    <path d="M 247.30619 150.470767 
L 235.895295 157.034471 
L 256.230714 160.489675 
z
" clip-path="url(#pd2d8056804)" style="fill: #440154; fill-opacity: 0.9"/>
    <path d="M 120.463307 153.130031 
L 118.49928 158.25415 
L 132.336968 157.3913 
z
" clip-path="url(#pd2d8056804)" style="fill: #440154; fill-opacity: 0.9"/>
    <path d="M 126.743704 145.89543 
L 101.021128 170.420891 
L 120.463307 153.130031 
z
" clip-path="url(#pd2d8056804)" style="fill: #440154; fill-opacity: 0.9"/>
    <path d="M 233.451232 159.902196 
L 235.895295 157.034471 
L 218.499731 152.937592 
z
" clip-path="url(#pd2d8056804)" style="fill: #440154; fill-opacity: 0.9"/>
    <path d="M 167.127509 153.509636 
L 164.487666 156.212008 
L 177.154655 160.960284 
z
" clip-path="url(#pd2d8056804)" style="fill: #440154; fill-opacity: 0.9"/>
    <path d="M 206.561215 154.177029 
L 200.295622 158.434974 
L 210.90659 159.166396 
z
" clip-path="url(#pd2d8056804)" style="fill: #440154; fill-opacity: 0.9"/>
    <path d="M 188.720469 161.982753 
L 200.295622 158.434974 
L 191.188944 151.432388 
z
" clip-path="url(#pd2d8056804)" style="fill: #440154; fill-opacity: 0.9"/>
    <path d="M 218.499731 152.937592 
L 210.90659 159.166396 
L 233.451232 159.902196 
z
" clip-path="url(#pd2d8056804)" style="fill: #440154; fill-opacity: 0.9"/>
    <path d="M 167.816292 160.653299 
L 164.487666 156.212008 
L 160.075358 157.686862 
z
" clip-path="url(#pd2d8056804)" style="fill: #440154; fill-opacity: 0.9"/>
    <path d="M 188.720469 161.982753 
L 179.647908 153.150767 
L 177.154655 160.960284 
z
" clip-path="url(#pd2d8056804)" style="fill: #440154; fill-opacity: 0.9"/>
    <path d="M 143.189854 163.978051 
L 137.138699 155.69327 
L 132.336968 157.3913 
z
" clip-path="url(#pd2d8056804)" style="fill: #440154; fill-opacity: 0.9"/>
    <path d="M 143.189854 163.978051 
L 160.075358 157.686862 
L 137.138699 155.69327 
z
" clip-path="url(#pd2d8056804)" style="fill: #440154; fill-opacity: 0.9"/>
    <path d="M 177.154655 160.960284 
L 164.487666 156.212008 
L 167.816292 160.653299 
z
" clip-path="url(#pd2d8056804)" style="fill: #440154; fill-opacity: 0.9"/>
    <path d="M 132.336968 157.3913 
L 118.49928 158.25415 
L 128.390341 162.187836 
z
" clip-path="url(#pd2d8056804)" style="fill: #440154; fill-opacity: 0.9"/>
    <path d="M 256.230714 160.489675 
L 235.895295 157.034471 
L 253.536509 162.51166 
z
" clip-path="url(#pd2d8056804)" style="fill: #440154; fill-opacity: 0.9"/>
    <path d="M 162.864431 162.152112 
L 167.816292 160.653299 
L 160.075358 157.686862 
z
" clip-path="url(#pd2d8056804)" style="fill: #440154; fill-opacity: 0.9"/>
    <path d="M 120.463307 153.130031 
L 101.021128 170.420891 
L 118.49928 158.25415 
z
" clip-path="url(#pd2d8056804)" style="fill: #440154; fill-opacity: 0.9"/>
    <path d="M 233.451232 159.902196 
L 241.559564 165.014901 
L 235.895295 157.034471 
z
" clip-path="url(#pd2d8056804)" style="fill: #440154; fill-opacity: 0.9"/>
    <path d="M 210.90659 159.166396 
L 200.295622 158.434974 
L 199.279403 164.612186 
z
" clip-path="url(#pd2d8056804)" style="fill: #440154; fill-opacity: 0.9"/>
    <path d="M 233.451232 159.902196 
L 210.90659 159.166396 
L 225.226474 164.44353 
z
" clip-path="url(#pd2d8056804)" style="fill: #440154; fill-opacity: 0.9"/>
    <path d="M 132.336968 157.3913 
L 128.390341 162.187836 
L 143.189854 163.978051 
z
" clip-path="url(#pd2d8056804)" style="fill: #440154; fill-opacity: 0.9"/>
    <path d="M 235.895295 157.034471 
L 249.995804 164.458741 
L 253.536509 162.51166 
z
" clip-path="url(#pd2d8056804)" style="fill: #440154; fill-opacity: 0.9"/>
    <path d="M 167.816292 160.653299 
L 173.551867 163.292429 
L 177.154655 160.960284 
z
" clip-path="url(#pd2d8056804)" style="fill: #440154; fill-opacity: 0.9"/>
    <path d="M 200.295622 158.434974 
L 188.720469 161.982753 
L 199.279403 164.612186 
z
" clip-path="url(#pd2d8056804)" style="fill: #440154; fill-opacity: 0.9"/>
    <path d="M 160.075358 157.686862 
L 155.039933 165.301983 
L 162.864431 162.152112 
z
" clip-path="url(#pd2d8056804)" style="fill: #440154; fill-opacity: 0.9"/>
    <path d="M 173.551867 163.292429 
L 188.720469 161.982753 
L 177.154655 160.960284 
z
" clip-path="url(#pd2d8056804)" style="fill: #440154; fill-opacity: 0.9"/>
    <path d="M 150.08496 164.800066 
L 160.075358 157.686862 
L 143.189854 163.978051 
z
" clip-path="url(#pd2d8056804)" style="fill: #440154; fill-opacity: 0.9"/>
    <path d="M 241.559564 165.014901 
L 249.995804 164.458741 
L 235.895295 157.034471 
z
" clip-path="url(#pd2d8056804)" style="fill: #440154; fill-opacity: 0.9"/>
    <path d="M 160.075358 157.686862 
L 150.08496 164.800066 
L 155.039933 165.301983 
z
" clip-path="url(#pd2d8056804)" style="fill: #440154; fill-opacity: 0.9"/>
    <path d="M 166.253633 165.818038 
L 167.816292 160.653299 
L 162.864431 162.152112 
z
" clip-path="url(#pd2d8056804)" style="fill: #440154; fill-opacity: 0.9"/>
    <path d="M 210.90659 159.166396 
L 213.278427 165.776963 
L 225.226474 164.44353 
z
" clip-path="url(#pd2d8056804)" style="fill: #440154; fill-opacity: 0.9"/>
    <path d="M 199.279403 164.612186 
L 213.278427 165.776963 
L 210.90659 159.166396 
z
" clip-path="url(#pd2d8056804)" style="fill: #440154; fill-opacity: 0.9"/>
    <path d="M 114.07099 169.290323 
L 128.390341 162.187836 
L 118.49928 158.25415 
z
" clip-path="url(#pd2d8056804)" style="fill: #440154; fill-opacity: 0.9"/>
    <path d="M 167.816292 160.653299 
L 166.253633 165.818038 
L 173.551867 163.292429 
z
" clip-path="url(#pd2d8056804)" style="fill: #440154; fill-opacity: 0.9"/>
    <path d="M 225.226474 164.44353 
L 234.987354 166.136242 
L 233.451232 159.902196 
z
" clip-path="url(#pd2d8056804)" style="fill: #440154; fill-opacity: 0.9"/>
    <path d="M 233.451232 159.902196 
L 234.987354 166.136242 
L 241.559564 165.014901 
z
" clip-path="url(#pd2d8056804)" style="fill: #440154; fill-opacity: 0.9"/>
    <path d="M 162.864431 162.152112 
L 155.039933 165.301983 
L 157.833229 165.332964 
z
" clip-path="url(#pd2d8056804)" style="fill: #440154; fill-opacity: 0.9"/>
    <path d="M 128.390341 162.187836 
L 138.431699 166.828553 
L 143.189854 163.978051 
z
" clip-path="url(#pd2d8056804)" style="fill: #440154; fill-opacity: 0.9"/>
    <path d="M 162.864431 162.152112 
L 157.833229 165.332964 
L 166.253633 165.818038 
z
" clip-path="url(#pd2d8056804)" style="fill: #440154; fill-opacity: 0.9"/>
    <path d="M 128.455461 165.710967 
L 138.431699 166.828553 
L 128.390341 162.187836 
z
" clip-path="url(#pd2d8056804)" style="fill: #440154; fill-opacity: 0.9"/>
    <path d="M 188.720469 161.982753 
L 173.551867 163.292429 
L 187.28006 171.019617 
z
" clip-path="url(#pd2d8056804)" style="fill: #440154; fill-opacity: 0.9"/>
    <path d="M 128.390341 162.187836 
L 114.07099 169.290323 
L 128.455461 165.710967 
z
" clip-path="url(#pd2d8056804)" style="fill: #440154; fill-opacity: 0.9"/>
    <path d="M 199.279403 164.612186 
L 188.720469 161.982753 
L 187.28006 171.019617 
z
" clip-path="url(#pd2d8056804)" style="fill: #440154; fill-opacity: 0.9"/>
    <path d="M 118.49928 158.25415 
L 105.707872 170.5128 
L 114.07099 169.290323 
z
" clip-path="url(#pd2d8056804)" style="fill: #440154; fill-opacity: 0.9"/>
    <path d="M 253.536509 162.51166 
L 249.995804 164.458741 
L 241.61085 171.525826 
z
" clip-path="url(#pd2d8056804)" style="fill: #440154; fill-opacity: 0.9"/>
    <path d="M 145.282146 170.355912 
L 150.08496 164.800066 
L 143.189854 163.978051 
z
" clip-path="url(#pd2d8056804)" style="fill: #440154; fill-opacity: 0.9"/>
    <path d="M 101.021128 170.420891 
L 105.707872 170.5128 
L 118.49928 158.25415 
z
" clip-path="url(#pd2d8056804)" style="fill: #440154; fill-opacity: 0.9"/>
    <path d="M 228.881108 168.632602 
L 234.987354 166.136242 
L 225.226474 164.44353 
z
" clip-path="url(#pd2d8056804)" style="fill: #440154; fill-opacity: 0.9"/>
    <path d="M 145.282146 170.355912 
L 155.039933 165.301983 
L 150.08496 164.800066 
z
" clip-path="url(#pd2d8056804)" style="fill: #440154; fill-opacity: 0.9"/>
    <path d="M 132.052745 168.011595 
L 138.431699 166.828553 
L 128.455461 165.710967 
z
" clip-path="url(#pd2d8056804)" style="fill: #440154; fill-opacity: 0.9"/>
    <path d="M 225.226474 164.44353 
L 213.278427 165.776963 
L 223.34812 170.556899 
z
" clip-path="url(#pd2d8056804)" style="fill: #440154; fill-opacity: 0.9"/>
    <path d="M 241.61085 171.525826 
L 249.995804 164.458741 
L 241.559564 165.014901 
z
" clip-path="url(#pd2d8056804)" style="fill: #440154; fill-opacity: 0.9"/>
    <path d="M 143.189854 163.978051 
L 138.431699 166.828553 
L 145.282146 170.355912 
z
" clip-path="url(#pd2d8056804)" style="fill: #440154; fill-opacity: 0.9"/>
    <path d="M 162.935946 170.674605 
L 157.833229 165.332964 
L 155.039933 165.301983 
z
" clip-path="url(#pd2d8056804)" style="fill: #440154; fill-opacity: 0.9"/>
    <path d="M 162.935946 170.674605 
L 166.253633 165.818038 
L 157.833229 165.332964 
z
" clip-path="url(#pd2d8056804)" style="fill: #440154; fill-opacity: 0.9"/>
    <path d="M 199.279403 164.612186 
L 193.201242 171.719113 
L 213.278427 165.776963 
z
" clip-path="url(#pd2d8056804)" style="fill: #440154; fill-opacity: 0.9"/>
    <path d="M 180.009641 173.35912 
L 173.551867 163.292429 
L 166.253633 165.818038 
z
" clip-path="url(#pd2d8056804)" style="fill: #440154; fill-opacity: 0.9"/>
    <path d="M 241.61085 171.525826 
L 241.559564 165.014901 
L 234.987354 166.136242 
z
" clip-path="url(#pd2d8056804)" style="fill: #440154; fill-opacity: 0.9"/>
    <path d="M 225.226474 164.44353 
L 223.34812 170.556899 
L 228.881108 168.632602 
z
" clip-path="url(#pd2d8056804)" style="fill: #440154; fill-opacity: 0.9"/>
    <path d="M 125.167787 169.983441 
L 132.052745 168.011595 
L 128.455461 165.710967 
z
" clip-path="url(#pd2d8056804)" style="fill: #440154; fill-opacity: 0.9"/>
    <path d="M 128.455461 165.710967 
L 114.07099 169.290323 
L 125.167787 169.983441 
z
" clip-path="url(#pd2d8056804)" style="fill: #440154; fill-opacity: 0.9"/>
    <path d="M 138.431699 166.828553 
L 132.052745 168.011595 
L 142.107249 170.466734 
z
" clip-path="url(#pd2d8056804)" style="fill: #440154; fill-opacity: 0.9"/>
    <path d="M 162.935946 170.674605 
L 155.039933 165.301983 
L 145.282146 170.355912 
z
" clip-path="url(#pd2d8056804)" style="fill: #440154; fill-opacity: 0.9"/>
    <path d="M 239.532714 172.076031 
L 234.987354 166.136242 
L 228.881108 168.632602 
z
" clip-path="url(#pd2d8056804)" style="fill: #440154; fill-opacity: 0.9"/>
    <path d="M 187.28006 171.019617 
L 193.201242 171.719113 
L 199.279403 164.612186 
z
" clip-path="url(#pd2d8056804)" style="fill: #440154; fill-opacity: 0.9"/>
    <path d="M 138.431699 166.828553 
L 142.107249 170.466734 
L 145.282146 170.355912 
z
" clip-path="url(#pd2d8056804)" style="fill: #440154; fill-opacity: 0.9"/>
    <path d="M 187.28006 171.019617 
L 173.551867 163.292429 
L 180.009641 173.35912 
z
" clip-path="url(#pd2d8056804)" style="fill: #440154; fill-opacity: 0.9"/>
    <path d="M 228.560732 169.751482 
L 228.881108 168.632602 
L 223.34812 170.556899 
z
" clip-path="url(#pd2d8056804)" style="fill: #440154; fill-opacity: 0.9"/>
    <path d="M 234.987354 166.136242 
L 239.532714 172.076031 
L 241.61085 171.525826 
z
" clip-path="url(#pd2d8056804)" style="fill: #440154; fill-opacity: 0.9"/>
    <path d="M 166.253633 165.818038 
L 162.935946 170.674605 
L 180.009641 173.35912 
z
" clip-path="url(#pd2d8056804)" style="fill: #440154; fill-opacity: 0.9"/>
    <path d="M 239.532714 172.076031 
L 228.881108 168.632602 
L 228.560732 169.751482 
z
" clip-path="url(#pd2d8056804)" style="fill: #440154; fill-opacity: 0.9"/>
    <path d="M 223.34812 170.556899 
L 213.278427 165.776963 
L 214.474709 174.881016 
z
" clip-path="url(#pd2d8056804)" style="fill: #440154; fill-opacity: 0.9"/>
    <path d="M 102.748527 170.542141 
L 105.707872 170.5128 
L 101.021128 170.420891 
z
" clip-path="url(#pd2d8056804)" style="fill: #440154; fill-opacity: 0.9"/>
    <path d="M 213.278427 165.776963 
L 193.201242 171.719113 
L 214.474709 174.881016 
z
" clip-path="url(#pd2d8056804)" style="fill: #440154; fill-opacity: 0.9"/>
    <path d="M 132.052745 168.011595 
L 125.167787 169.983441 
L 126.520972 174.714805 
z
" clip-path="url(#pd2d8056804)" style="fill: #440154; fill-opacity: 0.9"/>
    <path d="M 126.520972 174.714805 
L 125.167787 169.983441 
L 114.07099 169.290323 
z
" clip-path="url(#pd2d8056804)" style="fill: #440154; fill-opacity: 0.9"/>
    <path d="M 142.107249 170.466734 
L 146.136642 173.755039 
L 145.282146 170.355912 
z
" clip-path="url(#pd2d8056804)" style="fill: #440154; fill-opacity: 0.9"/>
    <path d="M 142.107249 170.466734 
L 132.052745 168.011595 
L 130.197335 176.200837 
z
" clip-path="url(#pd2d8056804)" style="fill: #440154; fill-opacity: 0.9"/>
    <path d="M 193.201242 171.719113 
L 187.28006 171.019617 
L 187.836785 172.015223 
z
" clip-path="url(#pd2d8056804)" style="fill: #440154; fill-opacity: 0.9"/>
    <path d="M 145.282146 170.355912 
L 148.395882 175.046466 
L 162.935946 170.674605 
z
" clip-path="url(#pd2d8056804)" style="fill: #440154; fill-opacity: 0.9"/>
    <path d="M 187.836785 172.015223 
L 187.28006 171.019617 
L 180.009641 173.35912 
z
" clip-path="url(#pd2d8056804)" style="fill: #440154; fill-opacity: 0.9"/>
    <path d="M 253.536509 162.51166 
L 214.649732 193.640913 
L 256.230714 160.489675 
z
" clip-path="url(#pd2d8056804)" style="fill: #440154; fill-opacity: 0.9"/>
    <path d="M 130.197335 176.200837 
L 132.052745 168.011595 
L 126.520972 174.714805 
z
" clip-path="url(#pd2d8056804)" style="fill: #440154; fill-opacity: 0.9"/>
    <path d="M 145.282146 170.355912 
L 146.136642 173.755039 
L 148.395882 175.046466 
z
" clip-path="url(#pd2d8056804)" style="fill: #440154; fill-opacity: 0.9"/>
    <path d="M 121.111174 179.572777 
L 114.07099 169.290323 
L 105.707872 170.5128 
z
" clip-path="url(#pd2d8056804)" style="fill: #440154; fill-opacity: 0.9"/>
    <path d="M 228.560732 169.751482 
L 223.34812 170.556899 
L 225.274063 179.24762 
z
" clip-path="url(#pd2d8056804)" style="fill: #440154; fill-opacity: 0.9"/>
    <path d="M 146.136642 173.755039 
L 142.107249 170.466734 
L 130.197335 176.200837 
z
" clip-path="url(#pd2d8056804)" style="fill: #440154; fill-opacity: 0.9"/>
    <path d="M 102.748527 170.542141 
L 101.021128 170.420891 
L 121.111174 179.572777 
z
" clip-path="url(#pd2d8056804)" style="fill: #440154; fill-opacity: 0.9"/>
    <path d="M 121.111174 179.572777 
L 105.707872 170.5128 
L 102.748527 170.542141 
z
" clip-path="url(#pd2d8056804)" style="fill: #440154; fill-opacity: 0.9"/>
    <path d="M 228.560732 169.751482 
L 225.274063 179.24762 
L 239.532714 172.076031 
z
" clip-path="url(#pd2d8056804)" style="fill: #440154; fill-opacity: 0.9"/>
    <path d="M 187.836785 172.015223 
L 192.850369 178.013748 
L 193.201242 171.719113 
z
" clip-path="url(#pd2d8056804)" style="fill: #440154; fill-opacity: 0.9"/>
    <path d="M 180.009641 173.35912 
L 192.850369 178.013748 
L 187.836785 172.015223 
z
" clip-path="url(#pd2d8056804)" style="fill: #440154; fill-opacity: 0.9"/>
    <path d="M 239.532714 172.076031 
L 226.046722 179.925674 
L 241.61085 171.525826 
z
" clip-path="url(#pd2d8056804)" style="fill: #440154; fill-opacity: 0.9"/>
    <path d="M 126.520972 174.714805 
L 114.07099 169.290323 
L 121.111174 179.572777 
z
" clip-path="url(#pd2d8056804)" style="fill: #440154; fill-opacity: 0.9"/>
    <path d="M 214.474709 174.881016 
L 193.201242 171.719113 
L 192.850369 178.013748 
z
" clip-path="url(#pd2d8056804)" style="fill: #440154; fill-opacity: 0.9"/>
    <path d="M 214.474709 174.881016 
L 225.274063 179.24762 
L 223.34812 170.556899 
z
" clip-path="url(#pd2d8056804)" style="fill: #440154; fill-opacity: 0.9"/>
    <path d="M 180.009641 173.35912 
L 162.935946 170.674605 
L 163.954068 180.87909 
z
" clip-path="url(#pd2d8056804)" style="fill: #440154; fill-opacity: 0.9"/>
    <path d="M 130.197335 176.200837 
L 148.395882 175.046466 
L 146.136642 173.755039 
z
" clip-path="url(#pd2d8056804)" style="fill: #440154; fill-opacity: 0.9"/>
    <path d="M 158.744235 181.223675 
L 162.935946 170.674605 
L 148.395882 175.046466 
z
" clip-path="url(#pd2d8056804)" style="fill: #440154; fill-opacity: 0.9"/>
    <path d="M 253.536509 162.51166 
L 241.61085 171.525826 
L 214.649732 193.640913 
z
" clip-path="url(#pd2d8056804)" style="fill: #440154; fill-opacity: 0.9"/>
    <path d="M 126.772715 180.174748 
L 130.197335 176.200837 
L 126.520972 174.714805 
z
" clip-path="url(#pd2d8056804)" style="fill: #440154; fill-opacity: 0.9"/>
    <path d="M 226.046722 179.925674 
L 239.532714 172.076031 
L 225.274063 179.24762 
z
" clip-path="url(#pd2d8056804)" style="fill: #440154; fill-opacity: 0.9"/>
    <path d="M 148.395882 175.046466 
L 130.197335 176.200837 
L 126.772715 180.174748 
z
" clip-path="url(#pd2d8056804)" style="fill: #440154; fill-opacity: 0.9"/>
    <path d="M 163.954068 180.87909 
L 162.935946 170.674605 
L 158.744235 181.223675 
z
" clip-path="url(#pd2d8056804)" style="fill: #440154; fill-opacity: 0.9"/>
    <path d="M 121.111174 179.572777 
L 126.772715 180.174748 
L 126.520972 174.714805 
z
" clip-path="url(#pd2d8056804)" style="fill: #440154; fill-opacity: 0.9"/>
    <path d="M 148.395882 175.046466 
L 126.772715 180.174748 
L 154.664741 182.282527 
z
" clip-path="url(#pd2d8056804)" style="fill: #440154; fill-opacity: 0.9"/>
    <path d="M 192.850369 178.013748 
L 201.760441 184.869572 
L 214.474709 174.881016 
z
" clip-path="url(#pd2d8056804)" style="fill: #440154; fill-opacity: 0.9"/>
    <path d="M 148.395882 175.046466 
L 154.664741 182.282527 
L 158.744235 181.223675 
z
" clip-path="url(#pd2d8056804)" style="fill: #440154; fill-opacity: 0.9"/>
    <path d="M 241.61085 171.525826 
L 226.046722 179.925674 
L 218.433139 188.176681 
z
" clip-path="url(#pd2d8056804)" style="fill: #440154; fill-opacity: 0.9"/>
    <path d="M 180.247023 188.77859 
L 192.850369 178.013748 
L 180.009641 173.35912 
z
" clip-path="url(#pd2d8056804)" style="fill: #440154; fill-opacity: 0.9"/>
    <path d="M 211.066869 187.401393 
L 225.274063 179.24762 
L 214.474709 174.881016 
z
" clip-path="url(#pd2d8056804)" style="fill: #440154; fill-opacity: 0.9"/>
    <path d="M 180.009641 173.35912 
L 163.954068 180.87909 
L 180.247023 188.77859 
z
" clip-path="url(#pd2d8056804)" style="fill: #440154; fill-opacity: 0.9"/>
    <path d="M 158.744235 181.223675 
L 159.938645 182.000055 
L 163.954068 180.87909 
z
" clip-path="url(#pd2d8056804)" style="fill: #440154; fill-opacity: 0.9"/>
    <path d="M 158.744235 181.223675 
L 154.664741 182.282527 
L 159.938645 182.000055 
z
" clip-path="url(#pd2d8056804)" style="fill: #440154; fill-opacity: 0.9"/>
    <path d="M 226.046722 179.925674 
L 225.274063 179.24762 
L 211.066869 187.401393 
z
" clip-path="url(#pd2d8056804)" style="fill: #440154; fill-opacity: 0.9"/>
    <path d="M 214.474709 174.881016 
L 201.760441 184.869572 
L 211.066869 187.401393 
z
" clip-path="url(#pd2d8056804)" style="fill: #440154; fill-opacity: 0.9"/>
    <path d="M 201.760441 184.869572 
L 192.850369 178.013748 
L 197.056911 184.941945 
z
" clip-path="url(#pd2d8056804)" style="fill: #440154; fill-opacity: 0.9"/>
    <path d="M 180.247023 188.77859 
L 163.954068 180.87909 
L 159.938645 182.000055 
z
" clip-path="url(#pd2d8056804)" style="fill: #440154; fill-opacity: 0.9"/>
    <path d="M 192.850369 178.013748 
L 180.247023 188.77859 
L 197.056911 184.941945 
z
" clip-path="url(#pd2d8056804)" style="fill: #440154; fill-opacity: 0.9"/>
    <path d="M 214.649732 193.640913 
L 241.61085 171.525826 
L 218.433139 188.176681 
z
" clip-path="url(#pd2d8056804)" style="fill: #440154; fill-opacity: 0.9"/>
    <path d="M 175.530704 195.443743 
L 126.772715 180.174748 
L 121.111174 179.572777 
z
" clip-path="url(#pd2d8056804)" style="fill: #440154; fill-opacity: 0.9"/>
    <path d="M 211.066869 187.401393 
L 218.433139 188.176681 
L 226.046722 179.925674 
z
" clip-path="url(#pd2d8056804)" style="fill: #440154; fill-opacity: 0.9"/>
    <path d="M 154.664741 182.282527 
L 126.772715 180.174748 
L 175.530704 195.443743 
z
" clip-path="url(#pd2d8056804)" style="fill: #440154; fill-opacity: 0.9"/>
    <path d="M 201.760441 184.869572 
L 197.056911 184.941945 
L 193.234096 188.866522 
z
" clip-path="url(#pd2d8056804)" style="fill: #440154; fill-opacity: 0.9"/>
    <path d="M 154.664741 182.282527 
L 175.530704 195.443743 
L 159.938645 182.000055 
z
" clip-path="url(#pd2d8056804)" style="fill: #440154; fill-opacity: 0.9"/>
    <path d="M 193.234096 188.866522 
L 211.066869 187.401393 
L 201.760441 184.869572 
z
" clip-path="url(#pd2d8056804)" style="fill: #440154; fill-opacity: 0.9"/>
    <path d="M 193.234096 188.866522 
L 197.056911 184.941945 
L 180.247023 188.77859 
z
" clip-path="url(#pd2d8056804)" style="fill: #440154; fill-opacity: 0.9"/>
    <path d="M 180.247023 188.77859 
L 159.938645 182.000055 
L 175.530704 195.443743 
z
" clip-path="url(#pd2d8056804)" style="fill: #440154; fill-opacity: 0.9"/>
    <path d="M 214.649732 193.640913 
L 218.433139 188.176681 
L 211.066869 187.401393 
z
" clip-path="url(#pd2d8056804)" style="fill: #440154; fill-opacity: 0.9"/>
    <path d="M 180.247023 188.77859 
L 179.672089 192.235604 
L 193.234096 188.866522 
z
" clip-path="url(#pd2d8056804)" style="fill: #440154; fill-opacity: 0.9"/>
    <path d="M 206.951061 194.974616 
L 211.066869 187.401393 
L 193.234096 188.866522 
z
" clip-path="url(#pd2d8056804)" style="fill: #440154; fill-opacity: 0.9"/>
    <path d="M 211.066869 187.401393 
L 206.951061 194.974616 
L 214.649732 193.640913 
z
" clip-path="url(#pd2d8056804)" style="fill: #440154; fill-opacity: 0.9"/>
    <path d="M 179.672089 192.235604 
L 180.247023 188.77859 
L 175.530704 195.443743 
z
" clip-path="url(#pd2d8056804)" style="fill: #440154; fill-opacity: 0.9"/>
    <path d="M 193.234096 188.866522 
L 179.672089 192.235604 
L 192.942013 199.368175 
z
" clip-path="url(#pd2d8056804)" style="fill: #440154; fill-opacity: 0.9"/>
    <path d="M 201.943191 198.420001 
L 206.951061 194.974616 
L 193.234096 188.866522 
z
" clip-path="url(#pd2d8056804)" style="fill: #440154; fill-opacity: 0.9"/>
    <path d="M 179.672089 192.235604 
L 175.530704 195.443743 
L 179.190567 195.732565 
z
" clip-path="url(#pd2d8056804)" style="fill: #440154; fill-opacity: 0.9"/>
    <path d="M 192.942013 199.368175 
L 201.943191 198.420001 
L 193.234096 188.866522 
z
" clip-path="url(#pd2d8056804)" style="fill: #440154; fill-opacity: 0.9"/>
    <path d="M 206.951061 194.974616 
L 201.943191 198.420001 
L 214.649732 193.640913 
z
" clip-path="url(#pd2d8056804)" style="fill: #440154; fill-opacity: 0.9"/>
    <path d="M 179.190567 195.732565 
L 192.942013 199.368175 
L 179.672089 192.235604 
z
" clip-path="url(#pd2d8056804)" style="fill: #440154; fill-opacity: 0.9"/>
    <path d="M 175.530704 195.443743 
L 192.942013 199.368175 
L 179.190567 195.732565 
z
" clip-path="url(#pd2d8056804)" style="fill: #440154; fill-opacity: 0.9"/>
   </g>
   <g id="text_22">
    <!-- $\hat{K}_{III}^{\Omega}$ (centrifugal) -->
    <g transform="translate(86.28 40.56) scale(0.24 -0.24)">
     <defs>
      <path id="DejaVuSans-302" d="M -1831 5119 
L -1369 5119 
L -603 3944 
L -1038 3944 
L -1600 4709 
L -2163 3944 
L -2597 3944 
L -1831 5119 
z
M -1600 3584 
L -1600 3584 
z
" transform="scale(0.015625)"/>
      <path id="DejaVuSans-Oblique-4b" d="M 1081 4666 
L 1716 4666 
L 1331 2700 
L 3781 4666 
L 4622 4666 
L 1850 2438 
L 3878 0 
L 3109 0 
L 1247 2272 
L 806 0 
L 172 0 
L 1081 4666 
z
" transform="scale(0.015625)"/>
      <path id="DejaVuSans-3a9" d="M 4647 556 
L 4647 0 
L 2772 0 
L 2772 556 
Q 3325 859 3634 1378 
Q 3944 1897 3944 2528 
Q 3944 3278 3531 3731 
Q 3119 4184 2444 4184 
Q 1769 4184 1355 3729 
Q 941 3275 941 2528 
Q 941 1897 1250 1378 
Q 1563 859 2119 556 
L 2119 0 
L 244 0 
L 244 556 
L 1241 556 
Q 747 991 519 1456 
Q 294 1922 294 2497 
Q 294 3491 894 4106 
Q 1491 4722 2444 4722 
Q 3391 4722 3994 4106 
Q 4594 3494 4594 2528 
Q 4594 1922 4372 1459 
Q 4150 997 3647 556 
L 4647 556 
z
" transform="scale(0.015625)"/>
      <path id="DejaVuSans-Oblique-49" d="M 1081 4666 
L 1716 4666 
L 806 0 
L 172 0 
L 1081 4666 
z
" transform="scale(0.015625)"/>
      <path id="DejaVuSans-20" transform="scale(0.015625)"/>
      <path id="DejaVuSans-28" d="M 1984 4856 
Q 1566 4138 1362 3434 
Q 1159 2731 1159 2009 
Q 1159 1288 1364 580 
Q 1569 -128 1984 -844 
L 1484 -844 
Q 1016 -109 783 600 
Q 550 1309 550 2009 
Q 550 2706 781 3412 
Q 1013 4119 1484 4856 
L 1984 4856 
z
" transform="scale(0.015625)"/>
      <path id="DejaVuSans-63" d="M 3122 3366 
L 3122 2828 
Q 2878 2963 2633 3030 
Q 2388 3097 2138 3097 
Q 1578 3097 1268 2742 
Q 959 2388 959 1747 
Q 959 1106 1268 751 
Q 1578 397 2138 397 
Q 2388 397 2633 464 
Q 2878 531 3122 666 
L 3122 134 
Q 2881 22 2623 -34 
Q 2366 -91 2075 -91 
Q 1284 -91 818 406 
Q 353 903 353 1747 
Q 353 2603 823 3093 
Q 1294 3584 2113 3584 
Q 2378 3584 2631 3529 
Q 2884 3475 3122 3366 
z
" transform="scale(0.015625)"/>
      <path id="DejaVuSans-65" d="M 3597 1894 
L 3597 1613 
L 953 1613 
Q 991 1019 1311 708 
Q 1631 397 2203 397 
Q 2534 397 2845 478 
Q 3156 559 3463 722 
L 3463 178 
Q 3153 47 2828 -22 
Q 2503 -91 2169 -91 
Q 1331 -91 842 396 
Q 353 884 353 1716 
Q 353 2575 817 3079 
Q 1281 3584 2069 3584 
Q 2775 3584 3186 3129 
Q 3597 2675 3597 1894 
z
M 3022 2063 
Q 3016 2534 2758 2815 
Q 2500 3097 2075 3097 
Q 1594 3097 1305 2825 
Q 1016 2553 972 2059 
L 3022 2063 
z
" transform="scale(0.015625)"/>
      <path id="DejaVuSans-6e" d="M 3513 2113 
L 3513 0 
L 2938 0 
L 2938 2094 
Q 2938 2591 2744 2837 
Q 2550 3084 2163 3084 
Q 1697 3084 1428 2787 
Q 1159 2491 1159 1978 
L 1159 0 
L 581 0 
L 581 3500 
L 1159 3500 
L 1159 2956 
Q 1366 3272 1645 3428 
Q 1925 3584 2291 3584 
Q 2894 3584 3203 3211 
Q 3513 2838 3513 2113 
z
" transform="scale(0.015625)"/>
      <path id="DejaVuSans-74" d="M 1172 4494 
L 1172 3500 
L 2356 3500 
L 2356 3053 
L 1172 3053 
L 1172 1153 
Q 1172 725 1289 603 
Q 1406 481 1766 481 
L 2356 481 
L 2356 0 
L 1766 0 
Q 1100 0 847 248 
Q 594 497 594 1153 
L 594 3053 
L 172 3053 
L 172 3500 
L 594 3500 
L 594 4494 
L 1172 4494 
z
" transform="scale(0.015625)"/>
      <path id="DejaVuSans-72" d="M 2631 2963 
Q 2534 3019 2420 3045 
Q 2306 3072 2169 3072 
Q 1681 3072 1420 2755 
Q 1159 2438 1159 1844 
L 1159 0 
L 581 0 
L 581 3500 
L 1159 3500 
L 1159 2956 
Q 1341 3275 1631 3429 
Q 1922 3584 2338 3584 
Q 2397 3584 2469 3576 
Q 2541 3569 2628 3553 
L 2631 2963 
z
" transform="scale(0.015625)"/>
      <path id="DejaVuSans-69" d="M 603 3500 
L 1178 3500 
L 1178 0 
L 603 0 
L 603 3500 
z
M 603 4863 
L 1178 4863 
L 1178 4134 
L 603 4134 
L 603 4863 
z
" transform="scale(0.015625)"/>
      <path id="DejaVuSans-66" d="M 2375 4863 
L 2375 4384 
L 1825 4384 
Q 1516 4384 1395 4259 
Q 1275 4134 1275 3809 
L 1275 3500 
L 2222 3500 
L 2222 3053 
L 1275 3053 
L 1275 0 
L 697 0 
L 697 3053 
L 147 3053 
L 147 3500 
L 697 3500 
L 697 3744 
Q 697 4328 969 4595 
Q 1241 4863 1831 4863 
L 2375 4863 
z
" transform="scale(0.015625)"/>
      <path id="DejaVuSans-75" d="M 544 1381 
L 544 3500 
L 1119 3500 
L 1119 1403 
Q 1119 906 1312 657 
Q 1506 409 1894 409 
Q 2359 409 2629 706 
Q 2900 1003 2900 1516 
L 2900 3500 
L 3475 3500 
L 3475 0 
L 2900 0 
L 2900 538 
Q 2691 219 2414 64 
Q 2138 -91 1772 -91 
Q 1169 -91 856 284 
Q 544 659 544 1381 
z
M 1991 3584 
L 1991 3584 
z
" transform="scale(0.015625)"/>
      <path id="DejaVuSans-67" d="M 2906 1791 
Q 2906 2416 2648 2759 
Q 2391 3103 1925 3103 
Q 1463 3103 1205 2759 
Q 947 2416 947 1791 
Q 947 1169 1205 825 
Q 1463 481 1925 481 
Q 2391 481 2648 825 
Q 2906 1169 2906 1791 
z
M 3481 434 
Q 3481 -459 3084 -895 
Q 2688 -1331 1869 -1331 
Q 1566 -1331 1297 -1286 
Q 1028 -1241 775 -1147 
L 775 -588 
Q 1028 -725 1275 -790 
Q 1522 -856 1778 -856 
Q 2344 -856 2625 -561 
Q 2906 -266 2906 331 
L 2906 616 
Q 2728 306 2450 153 
Q 2172 0 1784 0 
Q 1141 0 747 490 
Q 353 981 353 1791 
Q 353 2603 747 3093 
Q 1141 3584 1784 3584 
Q 2172 3584 2450 3431 
Q 2728 3278 2906 2969 
L 2906 3500 
L 3481 3500 
L 3481 434 
z
" transform="scale(0.015625)"/>
      <path id="DejaVuSans-61" d="M 2194 1759 
Q 1497 1759 1228 1600 
Q 959 1441 959 1056 
Q 959 750 1161 570 
Q 1363 391 1709 391 
Q 2188 391 2477 730 
Q 2766 1069 2766 1631 
L 2766 1759 
L 2194 1759 
z
M 3341 1997 
L 3341 0 
L 2766 0 
L 2766 531 
Q 2569 213 2275 61 
Q 1981 -91 1556 -91 
Q 1019 -91 701 211 
Q 384 513 384 1019 
Q 384 1609 779 1909 
Q 1175 2209 1959 2209 
L 2766 2209 
L 2766 2266 
Q 2766 2663 2505 2880 
Q 2244 3097 1772 3097 
Q 1472 3097 1187 3025 
Q 903 2953 641 2809 
L 641 3341 
Q 956 3463 1253 3523 
Q 1550 3584 1831 3584 
Q 2591 3584 2966 3190 
Q 3341 2797 3341 1997 
z
" transform="scale(0.015625)"/>
      <path id="DejaVuSans-6c" d="M 603 4863 
L 1178 4863 
L 1178 0 
L 603 0 
L 603 4863 
z
" transform="scale(0.015625)"/>
      <path id="DejaVuSans-29" d="M 513 4856 
L 1013 4856 
Q 1481 4119 1714 3412 
Q 1947 2706 1947 2009 
Q 1947 1309 1714 600 
Q 1481 -109 1013 -844 
L 513 -844 
Q 928 -128 1133 580 
Q 1338 1288 1338 2009 
Q 1338 2731 1133 3434 
Q 928 4138 513 4856 
z
" transform="scale(0.015625)"/>
     </defs>
     <use xlink:href="#DejaVuSans-302" transform="translate(65.972168 30.015625)"/>
     <use xlink:href="#DejaVuSans-Oblique-4b" transform="translate(0 0.609375)"/>
     <use xlink:href="#DejaVuSans-3a9" transform="translate(66.533203 38.890625) scale(0.7)"/>
     <use xlink:href="#DejaVuSans-Oblique-49" transform="translate(66.533203 -26.734375) scale(0.7)"/>
     <use xlink:href="#DejaVuSans-Oblique-49" transform="translate(87.177734 -26.734375) scale(0.7)"/>
     <use xlink:href="#DejaVuSans-Oblique-49" transform="translate(107.822266 -26.734375) scale(0.7)"/>
     <use xlink:href="#DejaVuSans-20" transform="translate(131.201172 0.609375)"/>
     <use xlink:href="#DejaVuSans-28" transform="translate(162.988281 0.609375)"/>
     <use xlink:href="#DejaVuSans-63" transform="translate(202.001953 0.609375)"/>
     <use xlink:href="#DejaVuSans-65" transform="translate(256.982422 0.609375)"/>
     <use xlink:href="#DejaVuSans-6e" transform="translate(318.505859 0.609375)"/>
     <use xlink:href="#DejaVuSans-74" transform="translate(381.884766 0.609375)"/>
     <use xlink:href="#DejaVuSans-72" transform="translate(421.09375 0.609375)"/>
     <use xlink:href="#DejaVuSans-69" transform="translate(462.207031 0.609375)"/>
     <use xlink:href="#DejaVuSans-66" transform="translate(489.990234 0.609375)"/>
     <use xlink:href="#DejaVuSans-75" transform="translate(525.195312 0.609375)"/>
     <use xlink:href="#DejaVuSans-67" transform="translate(588.574219 0.609375)"/>
     <use xlink:href="#DejaVuSans-61" transform="translate(652.050781 0.609375)"/>
     <use xlink:href="#DejaVuSans-6c" transform="translate(713.330078 0.609375)"/>
     <use xlink:href="#DejaVuSans-29" transform="translate(741.113281 0.609375)"/>
    </g>
   </g>
  </g>
 </g>
 <defs>
  <clipPath id="pd2d8056804">
   <rect x="65.04" y="47.28" width="229.92" height="229.92"/>
  </clipPath>
 </defs>
</svg>
